<svg width="1081" height="303" viewBox="0 0 1081 303" fill="none" xmlns="http://www.w3.org/2000/svg">
<rect width="1081" height="303" rx="7" fill="white"/>
<path fill-rule="evenodd" clip-rule="evenodd" d="M461.8 75H427.922V86.5556H416.63V121.222H427.922V132.778H416.63V167.444H427.922V179H461.8V167.444H473.093V132.778H461.8V121.222H473.093V86.5556H461.8V75ZM461.8 86.5556V121.222H427.922V86.5556H461.8ZM461.8 132.778H427.922V167.444H461.8V132.778Z" fill="#00DD9B"/>
<path d="M530.428 114.792C526.238 114.792 522.378 115.808 518.96 117.726C515.486 119.701 512.894 122.353 511.24 125.682V88.5554H501.536V169.467H511.24V160.1C512.894 163.43 515.431 166.082 518.794 168C522.158 169.918 525.852 170.877 529.877 170.877C537.376 170.877 543.497 168.282 548.349 163.034C553.201 157.787 555.627 151.073 555.627 142.891C555.627 134.597 553.257 127.826 548.625 122.635C543.938 117.444 537.873 114.792 530.428 114.792ZM528.499 161.85C523.316 161.85 519.07 160.1 515.762 156.546C512.453 153.047 510.799 148.477 510.799 142.891C510.799 137.305 512.453 132.735 515.762 129.18C519.07 125.626 523.316 123.82 528.499 123.82C533.517 123.82 537.652 125.626 540.905 129.18C544.103 132.792 545.757 137.362 545.757 142.891C545.757 148.421 544.103 152.991 540.905 156.546C537.652 160.1 533.517 161.85 528.499 161.85Z" fill="black"/>
<path d="M573.107 107.063C575.368 107.063 577.243 106.329 578.731 104.749C580.22 103.226 580.992 101.307 580.992 98.9938C580.992 96.7368 580.22 94.762 578.731 93.1822C577.243 91.6023 575.368 90.7559 573.107 90.7559C570.791 90.7559 568.861 91.6023 567.317 93.1822C565.773 94.762 565.057 96.7368 565.057 98.9938C565.057 101.307 565.773 103.226 567.317 104.749C568.806 106.329 570.736 107.063 573.107 107.063ZM568.255 169.467H577.959V116.203H568.255V169.467Z" fill="black"/>
<path d="M616.723 161.172C615.289 161.172 614.131 161.06 613.249 160.777C612.367 160.552 611.484 160.044 610.712 159.254C609.885 158.464 609.279 157.279 608.893 155.699C608.507 154.119 608.341 152.088 608.341 149.606V124.61H621.464V116.203H608.341V99.3322H598.526V116.203H589.153V124.61H598.526V151.806C598.526 155.079 598.857 157.956 599.629 160.326C600.401 162.696 601.283 164.502 602.331 165.743C603.323 166.984 604.647 167.943 606.246 168.62C607.79 169.354 609.169 169.805 610.382 169.918C611.539 170.087 612.918 170.144 614.462 170.144C618.101 170.144 621.023 169.918 623.284 169.354V160.439C621.134 160.947 618.928 161.172 616.723 161.172Z" fill="black"/>
<path d="M651.902 170.877C658.077 170.877 662.985 169.467 666.624 166.646C670.208 163.824 672.027 159.875 672.027 154.797C672.027 151.186 670.925 148.082 668.829 145.543C666.734 143.004 663.756 141.142 659.897 140.014L649.2 137.023C646.443 136.233 644.513 135.274 643.355 134.033C642.197 132.792 641.646 131.324 641.646 129.576C641.646 127.431 642.473 125.739 644.237 124.497C646.002 123.256 648.262 122.579 651.019 122.579C654.328 122.579 656.975 123.369 658.849 124.836C660.724 126.303 661.716 128.334 661.716 130.873H671.311C671.311 125.908 669.491 122.015 665.962 119.137C662.378 116.26 657.526 114.792 651.35 114.792C645.671 114.792 640.984 116.26 637.344 119.081C633.705 121.902 631.886 125.569 631.886 130.083C631.886 133.807 632.878 136.911 634.863 139.393C636.848 141.876 639.771 143.681 643.631 144.753L654.273 147.518C657.25 148.308 659.29 149.324 660.393 150.509C661.496 151.693 662.047 153.217 662.047 155.135C662.047 157.505 661.165 159.367 659.4 160.721C657.636 162.076 655.32 162.752 652.453 162.752C648.704 162.752 645.671 161.906 643.41 160.157C641.149 158.408 640.046 156.207 640.046 153.499H630.342C630.342 158.464 632.327 162.64 636.407 165.912C640.433 169.241 645.615 170.877 651.902 170.877Z" fill="black"/>
<path d="M189.89 233H192.866L186.794 216.2H183.482L177.386 233H180.386L181.562 229.616H188.714L189.89 233ZM182.474 227.024L185.138 219.44L187.802 227.024H182.474ZM202.832 224.312C202.832 223.904 203 223.592 203.336 223.376C203.672 223.16 204.08 223.04 204.584 223.04C205.664 223.04 206.408 223.496 206.84 224.408L209.024 223.184C208.592 222.416 207.992 221.792 207.224 221.36C206.456 220.928 205.568 220.688 204.584 220.688C203.336 220.688 202.28 221.024 201.44 221.696C200.6 222.368 200.192 223.256 200.192 224.36C200.192 225.176 200.408 225.824 200.84 226.352C201.272 226.88 201.824 227.24 202.472 227.456C203.096 227.696 203.744 227.888 204.368 228.056C204.992 228.224 205.544 228.416 205.976 228.656C206.408 228.896 206.648 229.208 206.648 229.592C206.648 230.504 205.952 230.936 204.608 230.936C203.24 230.936 202.352 230.36 201.944 229.208L199.712 230.504C200.096 231.392 200.696 232.088 201.56 232.568C202.4 233.072 203.408 233.312 204.608 233.312C205.952 233.312 207.056 233 207.944 232.328C208.832 231.68 209.288 230.768 209.288 229.616C209.288 228.8 209.048 228.128 208.616 227.6C208.184 227.072 207.632 226.688 207.008 226.448C206.36 226.232 205.712 226.04 205.088 225.872C204.464 225.704 203.912 225.512 203.48 225.272C203.048 225.032 202.832 224.72 202.832 224.312ZM212.722 219.2C213.154 219.2 213.538 219.056 213.874 218.72C214.21 218.384 214.378 218 214.378 217.544C214.378 217.112 214.21 216.728 213.898 216.392C213.562 216.056 213.178 215.888 212.722 215.888C212.242 215.888 211.858 216.056 211.546 216.392C211.21 216.728 211.066 217.112 211.066 217.544C211.066 218 211.21 218.384 211.546 218.72C211.882 219.056 212.266 219.2 212.722 219.2ZM211.426 233H214.018V221H211.426V233ZM230.132 220.688C228.476 220.688 227.252 221.336 226.46 222.584C225.716 221.336 224.588 220.688 223.052 220.688C221.516 220.688 220.388 221.288 219.62 222.44V221H217.028V233H219.62V226.28C219.62 225.248 219.86 224.456 220.364 223.928C220.844 223.4 221.492 223.112 222.284 223.112C223.004 223.112 223.556 223.352 223.94 223.808C224.324 224.264 224.54 224.912 224.54 225.728V233H227.132V226.28C227.132 225.224 227.348 224.432 227.828 223.904C228.308 223.376 228.932 223.112 229.748 223.112C230.468 223.112 231.02 223.352 231.452 223.808C231.86 224.264 232.076 224.912 232.076 225.728V233H234.668V225.56C234.668 224.072 234.236 222.896 233.42 222.008C232.58 221.144 231.476 220.688 230.132 220.688ZM244.234 220.688C242.41 220.688 240.994 221.384 240.034 222.728V221H237.442V237.8H240.034V231.296C240.994 232.64 242.41 233.312 244.234 233.312C245.866 233.312 247.282 232.712 248.458 231.488C249.61 230.288 250.21 228.776 250.21 227C250.21 225.248 249.61 223.76 248.458 222.536C247.282 221.312 245.866 220.688 244.234 220.688ZM243.826 230.84C242.722 230.84 241.834 230.48 241.114 229.76C240.394 229.04 240.034 228.104 240.034 227C240.034 225.896 240.394 224.984 241.114 224.264C241.834 223.544 242.722 223.16 243.826 223.16C244.906 223.16 245.818 223.544 246.538 224.264C247.258 224.984 247.618 225.896 247.618 227C247.618 228.104 247.258 229.04 246.538 229.76C245.818 230.48 244.906 230.84 243.826 230.84ZM252.559 233H255.151V215.48H252.559V233ZM260.2 228.104H269.752C269.8 227.672 269.848 227.312 269.848 227.024C269.848 225.272 269.272 223.784 268.144 222.536C267.016 221.312 265.576 220.688 263.824 220.688C261.952 220.688 260.44 221.312 259.264 222.512C258.064 223.712 257.488 225.224 257.488 227C257.488 228.824 258.088 230.336 259.288 231.536C260.488 232.736 262.048 233.312 264.016 233.312C266.32 233.312 268.072 232.448 269.272 230.696L267.136 229.448C266.44 230.456 265.408 230.936 264.04 230.936C263.032 230.936 262.192 230.696 261.52 230.216C260.824 229.736 260.392 229.016 260.2 228.104ZM260.176 225.992C260.344 225.08 260.752 224.36 261.4 223.832C262.024 223.304 262.84 223.04 263.8 223.04C264.64 223.04 265.384 223.304 266.008 223.784C266.632 224.288 267.04 225.032 267.232 225.992H260.176ZM280.457 224.312C280.457 223.904 280.625 223.592 280.961 223.376C281.297 223.16 281.705 223.04 282.209 223.04C283.289 223.04 284.033 223.496 284.465 224.408L286.649 223.184C286.217 222.416 285.617 221.792 284.849 221.36C284.081 220.928 283.193 220.688 282.209 220.688C280.961 220.688 279.905 221.024 279.065 221.696C278.225 222.368 277.817 223.256 277.817 224.36C277.817 225.176 278.033 225.824 278.465 226.352C278.897 226.88 279.449 227.24 280.097 227.456C280.721 227.696 281.369 227.888 281.993 228.056C282.617 228.224 283.169 228.416 283.601 228.656C284.033 228.896 284.273 229.208 284.273 229.592C284.273 230.504 283.577 230.936 282.233 230.936C280.865 230.936 279.977 230.36 279.569 229.208L277.337 230.504C277.721 231.392 278.321 232.088 279.185 232.568C280.025 233.072 281.033 233.312 282.233 233.312C283.577 233.312 284.681 233 285.569 232.328C286.457 231.68 286.913 230.768 286.913 229.616C286.913 228.8 286.673 228.128 286.241 227.6C285.809 227.072 285.257 226.688 284.633 226.448C283.985 226.232 283.337 226.04 282.713 225.872C282.089 225.704 281.537 225.512 281.105 225.272C280.673 225.032 280.457 224.72 280.457 224.312ZM290.927 228.104H300.479C300.527 227.672 300.575 227.312 300.575 227.024C300.575 225.272 299.999 223.784 298.871 222.536C297.743 221.312 296.303 220.688 294.551 220.688C292.679 220.688 291.167 221.312 289.991 222.512C288.791 223.712 288.215 225.224 288.215 227C288.215 228.824 288.815 230.336 290.015 231.536C291.215 232.736 292.775 233.312 294.743 233.312C297.047 233.312 298.799 232.448 299.999 230.696L297.863 229.448C297.167 230.456 296.135 230.936 294.767 230.936C293.759 230.936 292.919 230.696 292.247 230.216C291.551 229.736 291.119 229.016 290.927 228.104ZM290.903 225.992C291.071 225.08 291.479 224.36 292.127 223.832C292.751 223.304 293.567 223.04 294.527 223.04C295.367 223.04 296.111 223.304 296.735 223.784C297.359 224.288 297.767 225.032 297.959 225.992H290.903ZM305.448 223.016V221H302.856V233H305.448V226.952C305.448 225.728 305.808 224.84 306.552 224.312C307.272 223.784 308.136 223.544 309.144 223.592V220.784C307.32 220.784 306.096 221.528 305.448 223.016ZM319.195 221L315.859 230.12L312.499 221H309.667L314.347 233H317.347L322.027 221H319.195ZM325.24 228.104H334.792C334.84 227.672 334.888 227.312 334.888 227.024C334.888 225.272 334.312 223.784 333.184 222.536C332.056 221.312 330.616 220.688 328.864 220.688C326.992 220.688 325.48 221.312 324.304 222.512C323.104 223.712 322.528 225.224 322.528 227C322.528 228.824 323.128 230.336 324.328 231.536C325.528 232.736 327.088 233.312 329.056 233.312C331.36 233.312 333.112 232.448 334.312 230.696L332.176 229.448C331.48 230.456 330.448 230.936 329.08 230.936C328.072 230.936 327.232 230.696 326.56 230.216C325.864 229.736 325.432 229.016 325.24 228.104ZM325.215 225.992C325.384 225.08 325.792 224.36 326.44 223.832C327.064 223.304 327.88 223.04 328.84 223.04C329.68 223.04 330.424 223.304 331.048 223.784C331.672 224.288 332.08 225.032 332.272 225.992H325.215ZM339.76 223.016V221H337.168V233H339.76V226.952C339.76 225.728 340.12 224.84 340.864 224.312C341.584 223.784 342.448 223.544 343.456 223.592V220.784C341.632 220.784 340.408 221.528 339.76 223.016ZM345.371 233H347.963V215.48H345.371V233ZM353.013 228.104H362.565C362.613 227.672 362.661 227.312 362.661 227.024C362.661 225.272 362.085 223.784 360.957 222.536C359.829 221.312 358.389 220.688 356.637 220.688C354.765 220.688 353.253 221.312 352.077 222.512C350.877 223.712 350.301 225.224 350.301 227C350.301 228.824 350.901 230.336 352.101 231.536C353.301 232.736 354.861 233.312 356.829 233.312C359.133 233.312 360.885 232.448 362.085 230.696L359.949 229.448C359.253 230.456 358.221 230.936 356.853 230.936C355.845 230.936 355.005 230.696 354.333 230.216C353.637 229.736 353.205 229.016 353.013 228.104ZM352.989 225.992C353.157 225.08 353.565 224.36 354.213 223.832C354.837 223.304 355.653 223.04 356.613 223.04C357.453 223.04 358.197 223.304 358.821 223.784C359.445 224.288 359.853 225.032 360.045 225.992H352.989ZM366.801 224.312C366.801 223.904 366.969 223.592 367.305 223.376C367.641 223.16 368.049 223.04 368.553 223.04C369.633 223.04 370.377 223.496 370.809 224.408L372.993 223.184C372.561 222.416 371.961 221.792 371.193 221.36C370.425 220.928 369.537 220.688 368.553 220.688C367.305 220.688 366.249 221.024 365.409 221.696C364.569 222.368 364.161 223.256 364.161 224.36C364.161 225.176 364.377 225.824 364.809 226.352C365.241 226.88 365.793 227.24 366.441 227.456C367.065 227.696 367.713 227.888 368.337 228.056C368.961 228.224 369.513 228.416 369.945 228.656C370.377 228.896 370.617 229.208 370.617 229.592C370.617 230.504 369.921 230.936 368.577 230.936C367.209 230.936 366.321 230.36 365.913 229.208L363.681 230.504C364.065 231.392 364.665 232.088 365.529 232.568C366.369 233.072 367.377 233.312 368.577 233.312C369.921 233.312 371.025 233 371.913 232.328C372.801 231.68 373.257 230.768 373.257 229.616C373.257 228.8 373.017 228.128 372.585 227.6C372.153 227.072 371.601 226.688 370.977 226.448C370.329 226.232 369.681 226.04 369.057 225.872C368.433 225.704 367.881 225.512 367.449 225.272C367.017 225.032 366.801 224.72 366.801 224.312ZM377.137 224.312C377.137 223.904 377.305 223.592 377.641 223.376C377.977 223.16 378.385 223.04 378.889 223.04C379.969 223.04 380.713 223.496 381.145 224.408L383.329 223.184C382.897 222.416 382.297 221.792 381.529 221.36C380.761 220.928 379.873 220.688 378.889 220.688C377.641 220.688 376.585 221.024 375.745 221.696C374.905 222.368 374.497 223.256 374.497 224.36C374.497 225.176 374.713 225.824 375.145 226.352C375.577 226.88 376.129 227.24 376.777 227.456C377.401 227.696 378.049 227.888 378.673 228.056C379.297 228.224 379.849 228.416 380.281 228.656C380.713 228.896 380.953 229.208 380.953 229.592C380.953 230.504 380.257 230.936 378.913 230.936C377.545 230.936 376.657 230.36 376.249 229.208L374.017 230.504C374.401 231.392 375.001 232.088 375.865 232.568C376.705 233.072 377.713 233.312 378.913 233.312C380.257 233.312 381.361 233 382.249 232.328C383.137 231.68 383.593 230.768 383.593 229.616C383.593 228.8 383.353 228.128 382.921 227.6C382.489 227.072 381.937 226.688 381.313 226.448C380.665 226.232 380.017 226.04 379.393 225.872C378.769 225.704 378.217 225.512 377.785 225.272C377.353 225.032 377.137 224.72 377.137 224.312ZM399.959 221V227.432C399.959 228.608 399.671 229.472 399.119 230.048C398.543 230.624 397.823 230.888 396.911 230.888C396.071 230.888 395.423 230.648 394.943 230.168C394.463 229.688 394.223 229.016 394.223 228.104V221H391.631V228.368C391.631 229.904 392.039 231.128 392.903 231.992C393.743 232.88 394.847 233.312 396.239 233.312C397.919 233.312 399.167 232.712 399.959 231.464V233H402.551V221H399.959ZM408.174 223.016V221H405.582V233H408.174V226.952C408.174 225.728 408.534 224.84 409.278 224.312C409.998 223.784 410.862 223.544 411.87 223.592V220.784C410.046 220.784 408.822 221.528 408.174 223.016ZM413.785 233H416.377V215.48H413.785V233ZM427.715 224.312C427.715 223.904 427.883 223.592 428.219 223.376C428.555 223.16 428.963 223.04 429.467 223.04C430.547 223.04 431.291 223.496 431.723 224.408L433.907 223.184C433.475 222.416 432.875 221.792 432.107 221.36C431.339 220.928 430.451 220.688 429.467 220.688C428.219 220.688 427.163 221.024 426.323 221.696C425.483 222.368 425.075 223.256 425.075 224.36C425.075 225.176 425.291 225.824 425.723 226.352C426.155 226.88 426.707 227.24 427.355 227.456C427.979 227.696 428.627 227.888 429.251 228.056C429.875 228.224 430.427 228.416 430.859 228.656C431.291 228.896 431.531 229.208 431.531 229.592C431.531 230.504 430.835 230.936 429.491 230.936C428.123 230.936 427.235 230.36 426.827 229.208L424.595 230.504C424.979 231.392 425.579 232.088 426.443 232.568C427.283 233.072 428.291 233.312 429.491 233.312C430.835 233.312 431.939 233 432.827 232.328C433.715 231.68 434.171 230.768 434.171 229.616C434.171 228.8 433.931 228.128 433.499 227.6C433.067 227.072 432.515 226.688 431.891 226.448C431.243 226.232 430.595 226.04 429.971 225.872C429.347 225.704 428.795 225.512 428.363 225.272C427.931 225.032 427.715 224.72 427.715 224.312ZM442.621 220.688C440.917 220.688 439.669 221.312 438.901 222.536V216.2H436.309V233H438.901V226.568C438.901 225.416 439.165 224.552 439.741 223.976C440.293 223.4 441.037 223.112 441.949 223.112C442.765 223.112 443.437 223.352 443.917 223.832C444.397 224.312 444.637 225.008 444.637 225.896V233H447.229V225.632C447.229 224.096 446.797 222.896 445.957 222.008C445.093 221.144 443.989 220.688 442.621 220.688ZM455.684 233.312C457.46 233.312 458.948 232.712 460.172 231.488C461.396 230.288 462.02 228.776 462.02 227C462.02 225.224 461.396 223.736 460.172 222.512C458.948 221.312 457.46 220.688 455.684 220.688C453.908 220.688 452.42 221.312 451.196 222.512C449.948 223.736 449.348 225.224 449.348 227C449.348 228.776 449.948 230.288 451.196 231.488C452.42 232.712 453.908 233.312 455.684 233.312ZM455.684 230.792C454.628 230.792 453.74 230.432 453.02 229.712C452.3 228.992 451.94 228.104 451.94 227C451.94 225.92 452.3 225.008 453.02 224.288C453.74 223.568 454.628 223.208 455.684 223.208C456.74 223.208 457.628 223.568 458.348 224.288C459.068 225.008 459.428 225.92 459.428 227C459.428 228.104 459.068 228.992 458.348 229.712C457.628 230.432 456.74 230.792 455.684 230.792ZM466.956 223.016V221H464.364V233H466.956V226.952C466.956 225.728 467.316 224.84 468.06 224.312C468.78 223.784 469.644 223.544 470.652 223.592V220.784C468.828 220.784 467.604 221.528 466.956 223.016ZM479.567 223.496V221H476.591V217.64L473.999 218.408V221H471.791V223.496H473.999V229.256C473.999 230.84 474.431 231.92 475.295 232.496C476.159 233.072 477.575 233.24 479.567 233V230.672C478.895 230.72 478.343 230.72 477.911 230.696C477.479 230.672 477.143 230.552 476.927 230.336C476.687 230.12 476.591 229.76 476.591 229.256V223.496H479.567ZM483.466 228.104H493.018C493.066 227.672 493.114 227.312 493.114 227.024C493.114 225.272 492.538 223.784 491.41 222.536C490.282 221.312 488.842 220.688 487.09 220.688C485.218 220.688 483.706 221.312 482.53 222.512C481.33 223.712 480.754 225.224 480.754 227C480.754 228.824 481.354 230.336 482.554 231.536C483.754 232.736 485.314 233.312 487.282 233.312C489.586 233.312 491.338 232.448 492.538 230.696L490.402 229.448C489.706 230.456 488.674 230.936 487.306 230.936C486.298 230.936 485.458 230.696 484.786 230.216C484.09 229.736 483.658 229.016 483.466 228.104ZM483.442 225.992C483.61 225.08 484.018 224.36 484.666 223.832C485.29 223.304 486.106 223.04 487.066 223.04C487.906 223.04 488.65 223.304 489.274 223.784C489.898 224.288 490.306 225.032 490.498 225.992H483.442ZM501.707 220.688C500.003 220.688 498.755 221.312 497.987 222.536V221H495.395V233H497.987V226.568C497.987 225.416 498.251 224.552 498.827 223.976C499.379 223.4 500.123 223.112 501.035 223.112C501.851 223.112 502.523 223.352 503.003 223.832C503.483 224.312 503.723 225.008 503.723 225.896V233H506.315V225.632C506.315 224.096 505.883 222.896 505.043 222.008C504.179 221.144 503.075 220.688 501.707 220.688ZM511.146 228.104H520.698C520.746 227.672 520.794 227.312 520.794 227.024C520.794 225.272 520.218 223.784 519.09 222.536C517.962 221.312 516.522 220.688 514.77 220.688C512.898 220.688 511.386 221.312 510.21 222.512C509.01 223.712 508.434 225.224 508.434 227C508.434 228.824 509.034 230.336 510.234 231.536C511.434 232.736 512.994 233.312 514.962 233.312C517.266 233.312 519.018 232.448 520.218 230.696L518.082 229.448C517.386 230.456 516.354 230.936 514.986 230.936C513.978 230.936 513.138 230.696 512.466 230.216C511.77 229.736 511.338 229.016 511.146 228.104ZM511.122 225.992C511.29 225.08 511.698 224.36 512.346 223.832C512.97 223.304 513.786 223.04 514.746 223.04C515.586 223.04 516.33 223.304 516.954 223.784C517.578 224.288 517.986 225.032 518.178 225.992H511.122ZM525.667 223.016V221H523.075V233H525.667V226.952C525.667 225.728 526.027 224.84 526.771 224.312C527.491 223.784 528.355 223.544 529.363 223.592V220.784C527.539 220.784 526.315 221.528 525.667 223.016ZM550.382 220.688C548.726 220.688 547.502 221.336 546.71 222.584C545.966 221.336 544.838 220.688 543.302 220.688C541.766 220.688 540.638 221.288 539.87 222.44V221H537.278V233H539.87V226.28C539.87 225.248 540.11 224.456 540.614 223.928C541.094 223.4 541.742 223.112 542.534 223.112C543.254 223.112 543.806 223.352 544.19 223.808C544.574 224.264 544.79 224.912 544.79 225.728V233H547.382V226.28C547.382 225.224 547.598 224.432 548.078 223.904C548.558 223.376 549.182 223.112 549.998 223.112C550.718 223.112 551.27 223.352 551.702 223.808C552.11 224.264 552.326 224.912 552.326 225.728V233H554.918V225.56C554.918 224.072 554.486 222.896 553.67 222.008C552.83 221.144 551.726 220.688 550.382 220.688ZM567.196 221V222.704C566.212 221.36 564.82 220.688 562.996 220.688C561.34 220.688 559.924 221.312 558.772 222.512C557.596 223.736 557.02 225.224 557.02 227C557.02 228.776 557.596 230.264 558.772 231.488C559.924 232.712 561.34 233.312 562.996 233.312C564.82 233.312 566.212 232.64 567.196 231.272V233H569.788V221H567.196ZM563.404 230.84C562.3 230.84 561.412 230.48 560.692 229.76C559.972 229.04 559.612 228.104 559.612 227C559.612 225.896 559.972 224.984 560.692 224.264C561.412 223.544 562.3 223.16 563.404 223.16C564.484 223.16 565.396 223.544 566.116 224.264C566.836 224.984 567.196 225.896 567.196 227C567.196 228.104 566.836 229.04 566.116 229.76C565.396 230.48 564.484 230.84 563.404 230.84ZM582.313 216.2V222.704C581.329 221.36 579.937 220.688 578.113 220.688C576.457 220.688 575.041 221.312 573.889 222.512C572.713 223.736 572.137 225.224 572.137 227C572.137 228.776 572.713 230.264 573.889 231.488C575.041 232.712 576.457 233.312 578.113 233.312C579.937 233.312 581.329 232.64 582.313 231.272V233H584.905V216.2H582.313ZM578.521 230.84C577.417 230.84 576.529 230.48 575.809 229.76C575.089 229.04 574.729 228.104 574.729 227C574.729 225.896 575.089 224.984 575.809 224.264C576.529 223.544 577.417 223.16 578.521 223.16C579.601 223.16 580.513 223.544 581.233 224.264C581.953 224.984 582.313 225.896 582.313 227C582.313 228.104 581.953 229.04 581.233 229.76C580.513 230.48 579.601 230.84 578.521 230.84ZM589.966 228.104H599.518C599.566 227.672 599.614 227.312 599.614 227.024C599.614 225.272 599.038 223.784 597.91 222.536C596.782 221.312 595.342 220.688 593.59 220.688C591.718 220.688 590.206 221.312 589.03 222.512C587.83 223.712 587.254 225.224 587.254 227C587.254 228.824 587.854 230.336 589.054 231.536C590.254 232.736 591.814 233.312 593.782 233.312C596.086 233.312 597.838 232.448 599.038 230.696L596.902 229.448C596.206 230.456 595.174 230.936 593.806 230.936C592.798 230.936 591.958 230.696 591.286 230.216C590.59 229.736 590.158 229.016 589.966 228.104ZM589.942 225.992C590.11 225.08 590.518 224.36 591.166 223.832C591.79 223.304 592.606 223.04 593.566 223.04C594.406 223.04 595.15 223.304 595.774 223.784C596.398 224.288 596.806 225.032 596.998 225.992H589.942ZM621.719 221L619.367 229.28L616.871 221H614.399L611.879 229.28L609.551 221H606.815L610.583 233H613.127L615.647 224.912L618.143 233H620.687L624.455 221H621.719ZM627.66 219.2C628.092 219.2 628.476 219.056 628.812 218.72C629.148 218.384 629.316 218 629.316 217.544C629.316 217.112 629.148 216.728 628.836 216.392C628.5 216.056 628.116 215.888 627.66 215.888C627.18 215.888 626.796 216.056 626.484 216.392C626.148 216.728 626.004 217.112 626.004 217.544C626.004 218 626.148 218.384 626.484 218.72C626.82 219.056 627.204 219.2 627.66 219.2ZM626.364 233H628.956V221H626.364V233ZM638.661 223.496V221H635.685V217.64L633.093 218.408V221H630.885V223.496H633.093V229.256C633.093 230.84 633.525 231.92 634.389 232.496C635.253 233.072 636.669 233.24 638.661 233V230.672C637.989 230.72 637.437 230.72 637.005 230.696C636.573 230.672 636.237 230.552 636.021 230.336C635.781 230.12 635.685 229.76 635.685 229.256V223.496H638.661ZM647.324 220.688C645.62 220.688 644.372 221.312 643.604 222.536V216.2H641.012V233H643.604V226.568C643.604 225.416 643.868 224.552 644.444 223.976C644.996 223.4 645.74 223.112 646.652 223.112C647.468 223.112 648.14 223.352 648.62 223.832C649.1 224.312 649.34 225.008 649.34 225.896V233H651.932V225.632C651.932 224.096 651.5 222.896 650.66 222.008C649.796 221.144 648.692 220.688 647.324 220.688ZM676.971 216.2H674.019L668.931 224.6L663.867 216.2H660.891V233H663.651V221L668.763 229.472H669.099L674.211 221.024V233H676.971V216.2ZM685.817 233.312C687.593 233.312 689.081 232.712 690.305 231.488C691.529 230.288 692.153 228.776 692.153 227C692.153 225.224 691.529 223.736 690.305 222.512C689.081 221.312 687.593 220.688 685.817 220.688C684.041 220.688 682.553 221.312 681.329 222.512C680.081 223.736 679.481 225.224 679.481 227C679.481 228.776 680.081 230.288 681.329 231.488C682.553 232.712 684.041 233.312 685.817 233.312ZM685.817 230.792C684.761 230.792 683.873 230.432 683.153 229.712C682.433 228.992 682.073 228.104 682.073 227C682.073 225.92 682.433 225.008 683.153 224.288C683.873 223.568 684.761 223.208 685.817 223.208C686.873 223.208 687.761 223.568 688.481 224.288C689.201 225.008 689.561 225.92 689.561 227C689.561 228.104 689.201 228.992 688.481 229.712C687.761 230.432 686.873 230.792 685.817 230.792ZM700.808 220.688C699.104 220.688 697.856 221.312 697.088 222.536V221H694.496V233H697.088V226.568C697.088 225.416 697.352 224.552 697.928 223.976C698.48 223.4 699.224 223.112 700.136 223.112C700.952 223.112 701.624 223.352 702.104 223.832C702.584 224.312 702.824 225.008 702.824 225.896V233H705.416V225.632C705.416 224.096 704.984 222.896 704.144 222.008C703.28 221.144 702.176 220.688 700.808 220.688ZM717.759 221V222.776C716.775 221.384 715.383 220.688 713.583 220.688C711.879 220.688 710.439 221.312 709.287 222.512C708.111 223.712 707.535 225.176 707.535 226.88C707.535 228.608 708.111 230.072 709.287 231.272C710.439 232.472 711.879 233.072 713.583 233.072C715.383 233.072 716.775 232.376 717.759 230.984V232.448C717.759 233.504 717.423 234.32 716.799 234.896C716.175 235.472 715.287 235.76 714.183 235.76C712.455 235.76 711.303 235.16 710.679 233.912L708.447 235.208C709.455 237.152 711.351 238.112 714.135 238.112C715.839 238.112 717.303 237.632 718.503 236.648C719.703 235.688 720.303 234.272 720.303 232.448V221H717.759ZM713.943 230.648C712.839 230.648 711.927 230.288 711.207 229.568C710.487 228.848 710.127 227.96 710.127 226.88C710.127 225.824 710.487 224.912 711.207 224.192C711.927 223.472 712.839 223.112 713.943 223.112C715.023 223.112 715.935 223.472 716.655 224.192C717.375 224.912 717.759 225.824 717.759 226.88C717.759 227.96 717.375 228.848 716.655 229.568C715.935 230.288 715.023 230.648 713.943 230.648ZM728.989 233.312C730.765 233.312 732.253 232.712 733.477 231.488C734.701 230.288 735.325 228.776 735.325 227C735.325 225.224 734.701 223.736 733.477 222.512C732.253 221.312 730.765 220.688 728.989 220.688C727.213 220.688 725.725 221.312 724.501 222.512C723.253 223.736 722.653 225.224 722.653 227C722.653 228.776 723.253 230.288 724.501 231.488C725.725 232.712 727.213 233.312 728.989 233.312ZM728.989 230.792C727.933 230.792 727.045 230.432 726.325 229.712C725.605 228.992 725.245 228.104 725.245 227C725.245 225.92 725.605 225.008 726.325 224.288C727.045 223.568 727.933 223.208 728.989 223.208C730.045 223.208 730.933 223.568 731.653 224.288C732.373 225.008 732.733 225.92 732.733 227C732.733 228.104 732.373 228.992 731.653 229.712C730.933 230.432 730.045 230.792 728.989 230.792ZM750.436 216.2H743.836V233H750.436C752.74 233 754.636 232.208 756.172 230.576C757.708 228.944 758.476 226.952 758.476 224.6C758.476 222.248 757.708 220.256 756.172 218.624C754.636 217.016 752.74 216.2 750.436 216.2ZM750.436 230.36H746.596V218.84H750.436C752.02 218.84 753.292 219.392 754.3 220.472C755.308 221.552 755.812 222.92 755.812 224.6C755.812 226.28 755.308 227.648 754.3 228.728C753.292 229.832 752.02 230.36 750.436 230.36ZM770.881 224.288C772.009 223.472 772.585 222.32 772.585 220.856C772.585 219.536 772.105 218.432 771.145 217.544C770.185 216.656 769.033 216.2 767.665 216.2H760.993V233H768.193C769.585 233 770.785 232.544 771.769 231.632C772.729 230.72 773.233 229.592 773.233 228.2C773.233 227.336 773.017 226.544 772.609 225.872C772.177 225.2 771.601 224.672 770.881 224.288ZM767.665 218.792C768.265 218.792 768.769 219.008 769.201 219.44C769.609 219.872 769.825 220.376 769.825 221C769.825 221.624 769.609 222.152 769.201 222.584C768.769 223.016 768.265 223.208 767.665 223.208H763.753V218.792H767.665ZM768.193 230.408H763.753V225.704H768.193C768.817 225.704 769.369 225.944 769.801 226.4C770.233 226.856 770.473 227.408 770.473 228.056C770.473 228.728 770.233 229.28 769.801 229.736C769.369 230.192 768.817 230.408 768.193 230.408ZM790.977 221V222.704C789.993 221.36 788.601 220.688 786.777 220.688C785.121 220.688 783.705 221.312 782.553 222.512C781.377 223.736 780.801 225.224 780.801 227C780.801 228.776 781.377 230.264 782.553 231.488C783.705 232.712 785.121 233.312 786.777 233.312C788.601 233.312 789.993 232.64 790.977 231.272V233H793.569V221H790.977ZM787.185 230.84C786.081 230.84 785.193 230.48 784.473 229.76C783.753 229.04 783.393 228.104 783.393 227C783.393 225.896 783.753 224.984 784.473 224.264C785.193 223.544 786.081 223.16 787.185 223.16C788.265 223.16 789.177 223.544 789.897 224.264C790.617 224.984 790.977 225.896 790.977 227C790.977 228.104 790.617 229.04 789.897 229.76C789.177 230.48 788.265 230.84 787.185 230.84ZM802.902 220.688C801.198 220.688 799.95 221.312 799.182 222.536V221H796.59V233H799.182V226.568C799.182 225.416 799.446 224.552 800.022 223.976C800.574 223.4 801.318 223.112 802.23 223.112C803.046 223.112 803.718 223.352 804.198 223.832C804.678 224.312 804.918 225.008 804.918 225.896V233H807.51V225.632C807.51 224.096 807.078 222.896 806.238 222.008C805.374 221.144 804.27 220.688 802.902 220.688ZM819.805 216.2V222.704C818.821 221.36 817.429 220.688 815.605 220.688C813.949 220.688 812.533 221.312 811.381 222.512C810.205 223.736 809.629 225.224 809.629 227C809.629 228.776 810.205 230.264 811.381 231.488C812.533 232.712 813.949 233.312 815.605 233.312C817.429 233.312 818.821 232.64 819.805 231.272V233H822.397V216.2H819.805ZM816.013 230.84C814.909 230.84 814.021 230.48 813.301 229.76C812.581 229.04 812.221 228.104 812.221 227C812.221 225.896 812.581 224.984 813.301 224.264C814.021 223.544 814.909 223.16 816.013 223.16C817.093 223.16 818.005 223.544 818.725 224.264C819.445 224.984 819.805 225.896 819.805 227C819.805 228.104 819.445 229.04 818.725 229.76C818.005 230.48 817.093 230.84 816.013 230.84ZM835.858 233H839.17L845.002 216.2H842.002L837.514 229.664L833.05 216.2H830.026L835.858 233ZM847.24 228.104H856.792C856.84 227.672 856.888 227.312 856.888 227.024C856.888 225.272 856.312 223.784 855.184 222.536C854.056 221.312 852.616 220.688 850.864 220.688C848.992 220.688 847.48 221.312 846.304 222.512C845.104 223.712 844.528 225.224 844.528 227C844.528 228.824 845.128 230.336 846.328 231.536C847.528 232.736 849.088 233.312 851.056 233.312C853.36 233.312 855.112 232.448 856.312 230.696L854.176 229.448C853.48 230.456 852.448 230.936 851.08 230.936C850.072 230.936 849.232 230.696 848.56 230.216C847.864 229.736 847.432 229.016 847.24 228.104ZM847.215 225.992C847.384 225.08 847.792 224.36 848.44 223.832C849.064 223.304 849.88 223.04 850.84 223.04C851.68 223.04 852.424 223.304 853.048 223.784C853.672 224.288 854.08 225.032 854.272 225.992H847.215ZM861.76 223.016V221H859.168V233H861.76V226.952C861.76 225.728 862.12 224.84 862.864 224.312C863.584 223.784 864.448 223.544 865.456 223.592V220.784C863.632 220.784 862.408 221.528 861.76 223.016ZM872.473 233.312C873.625 233.312 874.705 233.048 875.665 232.472C876.625 231.92 877.345 231.152 877.873 230.192L875.641 228.92C875.353 229.496 874.921 229.928 874.345 230.264C873.769 230.6 873.145 230.768 872.449 230.768C871.393 230.768 870.505 230.408 869.785 229.688C869.065 228.968 868.729 228.08 868.729 227C868.729 225.944 869.065 225.032 869.785 224.312C870.505 223.592 871.393 223.232 872.449 223.232C873.169 223.232 873.793 223.4 874.345 223.736C874.897 224.072 875.305 224.504 875.593 225.08L877.825 223.784C877.345 222.848 876.625 222.104 875.665 221.528C874.705 220.976 873.625 220.688 872.473 220.688C870.649 220.688 869.137 221.312 867.937 222.512C866.737 223.712 866.137 225.224 866.137 227C866.137 228.776 866.737 230.288 867.937 231.488C869.137 232.712 870.649 233.312 872.473 233.312ZM881.599 228.104H891.151C891.199 227.672 891.247 227.312 891.247 227.024C891.247 225.272 890.671 223.784 889.543 222.536C888.415 221.312 886.975 220.688 885.223 220.688C883.351 220.688 881.839 221.312 880.663 222.512C879.463 223.712 878.887 225.224 878.887 227C878.887 228.824 879.487 230.336 880.687 231.536C881.887 232.736 883.447 233.312 885.415 233.312C887.719 233.312 889.471 232.448 890.671 230.696L888.535 229.448C887.839 230.456 886.807 230.936 885.439 230.936C884.431 230.936 883.591 230.696 882.919 230.216C882.223 229.736 881.791 229.016 881.599 228.104ZM881.575 225.992C881.743 225.08 882.151 224.36 882.799 223.832C883.423 223.304 884.239 223.04 885.199 223.04C886.039 223.04 886.783 223.304 887.407 223.784C888.031 224.288 888.439 225.032 888.631 225.992H881.575ZM893.528 233H896.12V215.48H893.528V233ZM900.689 233.288C901.169 233.288 901.601 233.12 901.961 232.76C902.297 232.424 902.489 231.992 902.489 231.488C902.489 231.008 902.297 230.576 901.961 230.216C901.601 229.88 901.169 229.688 900.689 229.688C900.161 229.688 899.729 229.88 899.393 230.216C899.057 230.576 898.889 231.008 898.889 231.488C898.889 231.992 899.057 232.424 899.417 232.76C899.753 233.12 900.185 233.288 900.689 233.288Z" fill="#959595"/>
</svg>
