<svg width="73" height="30" viewBox="0 0 73 30" fill="none" xmlns="http://www.w3.org/2000/svg">
<path fill-rule="evenodd" clip-rule="evenodd" d="M18.4349 3H10.6087V5.66667H8V13.6667H10.6087V16.3333H8V24.3333H10.6087V27H18.4349V24.3333H21.0437V16.3333H18.4349V13.6667H21.0437V5.66667H18.4349V3ZM18.4349 5.66667V13.6667H10.6087V5.66667H18.4349ZM18.4349 16.3333H10.6087V24.3333H18.4349V16.3333Z" fill="#00DD9B"/>
<path d="M34.2889 12.1828C33.3209 12.1828 32.4292 12.4172 31.6395 12.8599C30.837 13.3156 30.2383 13.9276 29.8561 14.6958V6.12813H27.6143V24.8H29.8561V22.6385C30.2383 23.4068 30.8242 24.0188 31.6012 24.4615C32.3783 24.9042 33.2317 25.1255 34.1616 25.1255C35.8939 25.1255 37.3078 24.5266 38.4288 23.3156C39.5497 22.1047 40.1102 20.5552 40.1102 18.6672C40.1102 16.7531 39.5625 15.1906 38.4925 13.9927C37.4097 12.7948 36.0086 12.1828 34.2889 12.1828ZM33.8431 23.0422C32.6458 23.0422 31.6649 22.6385 30.9007 21.8182C30.1364 21.0109 29.7542 19.9563 29.7542 18.6672C29.7542 17.3781 30.1364 16.3234 30.9007 15.5031C31.6649 14.6828 32.6458 14.2661 33.8431 14.2661C35.0023 14.2661 35.9576 14.6828 36.7092 15.5031C37.448 16.3365 37.8301 17.3911 37.8301 18.6672C37.8301 19.9432 37.448 20.9979 36.7092 21.8182C35.9576 22.6385 35.0023 23.0422 33.8431 23.0422Z" fill="white"/>
<path d="M44.1481 10.399C44.6704 10.399 45.1035 10.2297 45.4474 9.86511C45.7913 9.51355 45.9697 9.07084 45.9697 8.53698C45.9697 8.01615 45.7913 7.56042 45.4474 7.19584C45.1035 6.83125 44.6704 6.63594 44.1481 6.63594C43.6131 6.63594 43.1673 6.83125 42.8106 7.19584C42.454 7.56042 42.2884 8.01615 42.2884 8.53698C42.2884 9.07084 42.454 9.51355 42.8106 9.86511C43.1546 10.2297 43.6004 10.399 44.1481 10.399ZM43.0272 24.8H45.2691V12.5083H43.0272V24.8Z" fill="white"/>
<path d="M54.2239 22.8859C53.8927 22.8859 53.6252 22.8599 53.4214 22.7948C53.2176 22.7427 53.0137 22.6255 52.8354 22.4432C52.6443 22.2609 52.5042 21.9875 52.4151 21.6229C52.3259 21.2583 52.2877 20.7896 52.2877 20.2167V14.4484H55.3193V12.5083H52.2877V8.61511H50.0203V12.5083H47.8549V14.4484H50.0203V20.7245C50.0203 21.4797 50.0968 22.1438 50.2751 22.6906C50.4534 23.2375 50.6572 23.6542 50.8992 23.9406C51.1285 24.2271 51.4342 24.4484 51.8036 24.6047C52.1603 24.774 52.4788 24.8781 52.759 24.9042C53.0265 24.9432 53.3449 24.9563 53.7016 24.9563C54.5423 24.9563 55.2174 24.9042 55.7397 24.774V22.7167C55.2429 22.8339 54.7334 22.8859 54.2239 22.8859Z" fill="white"/>
<path d="M62.3507 25.1255C63.7773 25.1255 64.911 24.8 65.7517 24.149C66.5797 23.4979 67 22.5865 67 21.4146C67 20.5813 66.7453 19.8651 66.2612 19.2792C65.7772 18.6932 65.0893 18.2635 64.1977 18.0031L61.7265 17.313C61.0896 17.1307 60.6438 16.9094 60.3763 16.6229C60.1088 16.3365 59.9814 15.9979 59.9814 15.5943C59.9814 15.0995 60.1725 14.7089 60.5801 14.4224C60.9877 14.1359 61.51 13.9797 62.1469 13.9797C62.9111 13.9797 63.5226 14.162 63.9557 14.5005C64.3887 14.8391 64.618 15.3078 64.618 15.8938H66.8344C66.8344 14.7479 66.4141 13.8495 65.5989 13.1854C64.7709 12.5214 63.6499 12.1828 62.2233 12.1828C60.9113 12.1828 59.8286 12.5214 58.9878 13.1724C58.1471 13.8234 57.7268 14.6698 57.7268 15.7115C57.7268 16.5708 57.9561 17.287 58.4146 17.8599C58.8732 18.4328 59.5483 18.8495 60.44 19.0969L62.8984 19.7349C63.5863 19.9172 64.0576 20.1516 64.3123 20.425C64.5671 20.6984 64.6945 21.05 64.6945 21.4927C64.6945 22.0396 64.4906 22.4693 64.083 22.7818C63.6754 23.0943 63.1404 23.2505 62.478 23.2505C61.6119 23.2505 60.9113 23.0552 60.389 22.6516C59.8668 22.2479 59.612 21.7401 59.612 21.1151H57.3701C57.3701 22.2609 57.8287 23.2245 58.7713 23.9797C59.7012 24.7479 60.8985 25.1255 62.3507 25.1255Z" fill="white"/>
</svg>
