<svg width="1081" height="393" viewBox="0 0 1081 393" fill="none" xmlns="http://www.w3.org/2000/svg">
<rect width="1081" height="393" rx="15" fill="white"/>
<path fill-rule="evenodd" clip-rule="evenodd" d="M461.8 95H427.923V106.556H416.63V141.222H427.923V152.778H416.63V187.444H427.923V199H461.8V187.444H473.093V152.778H461.8V141.222H473.093V106.556H461.8V95ZM461.8 106.556V141.222H427.923V106.556H461.8ZM461.8 152.778H427.923V187.444H461.8V152.778Z" fill="#00DD9B"/>
<path d="M530.428 134.792C526.238 134.792 522.378 135.808 518.96 137.726C515.486 139.701 512.894 142.353 511.24 145.682V108.555H501.536V189.467H511.24V180.1C512.894 183.43 515.431 186.082 518.794 188C522.158 189.918 525.852 190.877 529.877 190.877C537.376 190.877 543.497 188.282 548.349 183.034C553.201 177.787 555.627 171.073 555.627 162.891C555.627 154.597 553.257 147.826 548.625 142.635C543.938 137.444 537.873 134.792 530.428 134.792ZM528.499 181.85C523.316 181.85 519.07 180.1 515.762 176.546C512.453 173.047 510.799 168.477 510.799 162.891C510.799 157.305 512.453 152.735 515.762 149.18C519.07 145.626 523.316 143.82 528.499 143.82C533.517 143.82 537.652 145.626 540.905 149.18C544.103 152.792 545.757 157.362 545.757 162.891C545.757 168.421 544.103 172.991 540.905 176.546C537.652 180.1 533.517 181.85 528.499 181.85Z" fill="black"/>
<path d="M573.107 127.062C575.368 127.062 577.242 126.329 578.731 124.749C580.22 123.226 580.992 121.307 580.992 118.994C580.992 116.737 580.22 114.762 578.731 113.182C577.242 111.602 575.368 110.756 573.107 110.756C570.791 110.756 568.861 111.602 567.317 113.182C565.773 114.762 565.056 116.737 565.056 118.994C565.056 121.307 565.773 123.226 567.317 124.749C568.806 126.329 570.736 127.062 573.107 127.062ZM568.254 189.467H577.959V136.203H568.254V189.467Z" fill="black"/>
<path d="M616.723 181.172C615.289 181.172 614.131 181.06 613.249 180.777C612.367 180.552 611.484 180.044 610.713 179.254C609.885 178.464 609.279 177.279 608.893 175.699C608.507 174.119 608.342 172.088 608.342 169.606V144.61H621.465V136.203H608.342V119.332H598.527V136.203H589.153V144.61H598.527V171.806C598.527 175.079 598.858 177.956 599.63 180.326C600.401 182.696 601.284 184.502 602.331 185.743C603.324 186.984 604.647 187.943 606.246 188.62C607.79 189.354 609.169 189.805 610.382 189.918C611.54 190.087 612.918 190.144 614.462 190.144C618.101 190.144 621.024 189.918 623.285 189.354V180.439C621.134 180.947 618.929 181.172 616.723 181.172Z" fill="black"/>
<path d="M651.902 190.877C658.077 190.877 662.985 189.467 666.624 186.646C670.208 183.824 672.027 179.875 672.027 174.797C672.027 171.186 670.925 168.082 668.829 165.543C666.734 163.004 663.756 161.142 659.897 160.014L649.2 157.023C646.443 156.233 644.513 155.274 643.355 154.033C642.197 152.792 641.646 151.324 641.646 149.575C641.646 147.431 642.473 145.739 644.237 144.497C646.002 143.256 648.262 142.579 651.019 142.579C654.328 142.579 656.975 143.369 658.849 144.836C660.724 146.303 661.716 148.334 661.716 150.873H671.311C671.311 145.908 669.491 142.015 665.962 139.137C662.378 136.26 657.526 134.792 651.35 134.792C645.671 134.792 640.984 136.26 637.344 139.081C633.705 141.902 631.886 145.569 631.886 150.083C631.886 153.807 632.878 156.911 634.863 159.393C636.848 161.876 639.771 163.681 643.631 164.753L654.273 167.518C657.25 168.308 659.29 169.324 660.393 170.509C661.496 171.693 662.047 173.217 662.047 175.135C662.047 177.505 661.165 179.367 659.4 180.721C657.636 182.075 655.32 182.752 652.453 182.752C648.704 182.752 645.671 181.906 643.41 180.157C641.149 178.408 640.046 176.207 640.046 173.499H630.342C630.342 178.464 632.327 182.64 636.407 185.912C640.433 189.241 645.615 190.877 651.902 190.877Z" fill="black"/>
<path d="M189.89 253H192.866L186.794 236.2H183.482L177.386 253H180.386L181.562 249.616H188.714L189.89 253ZM182.474 247.024L185.138 239.44L187.802 247.024H182.474ZM202.832 244.312C202.832 243.904 203 243.592 203.336 243.376C203.672 243.16 204.08 243.04 204.584 243.04C205.664 243.04 206.408 243.496 206.84 244.408L209.024 243.184C208.592 242.416 207.992 241.792 207.224 241.36C206.456 240.928 205.568 240.688 204.584 240.688C203.336 240.688 202.28 241.024 201.44 241.696C200.6 242.368 200.192 243.256 200.192 244.36C200.192 245.176 200.408 245.824 200.84 246.352C201.272 246.88 201.824 247.24 202.472 247.456C203.096 247.696 203.744 247.888 204.368 248.056C204.992 248.224 205.544 248.416 205.976 248.656C206.408 248.896 206.648 249.208 206.648 249.592C206.648 250.504 205.952 250.936 204.608 250.936C203.24 250.936 202.352 250.36 201.944 249.208L199.712 250.504C200.096 251.392 200.696 252.088 201.56 252.568C202.4 253.072 203.408 253.312 204.608 253.312C205.952 253.312 207.056 253 207.944 252.328C208.832 251.68 209.288 250.768 209.288 249.616C209.288 248.8 209.048 248.128 208.616 247.6C208.184 247.072 207.632 246.688 207.008 246.448C206.36 246.232 205.712 246.04 205.088 245.872C204.464 245.704 203.912 245.512 203.48 245.272C203.048 245.032 202.832 244.72 202.832 244.312ZM212.722 239.2C213.154 239.2 213.538 239.056 213.874 238.72C214.21 238.384 214.378 238 214.378 237.544C214.378 237.112 214.21 236.728 213.898 236.392C213.562 236.056 213.178 235.888 212.722 235.888C212.242 235.888 211.858 236.056 211.546 236.392C211.21 236.728 211.066 237.112 211.066 237.544C211.066 238 211.21 238.384 211.546 238.72C211.882 239.056 212.266 239.2 212.722 239.2ZM211.426 253H214.018V241H211.426V253ZM230.132 240.688C228.476 240.688 227.252 241.336 226.46 242.584C225.716 241.336 224.588 240.688 223.052 240.688C221.516 240.688 220.388 241.288 219.62 242.44V241H217.028V253H219.62V246.28C219.62 245.248 219.86 244.456 220.364 243.928C220.844 243.4 221.492 243.112 222.284 243.112C223.004 243.112 223.556 243.352 223.94 243.808C224.324 244.264 224.54 244.912 224.54 245.728V253H227.132V246.28C227.132 245.224 227.348 244.432 227.828 243.904C228.308 243.376 228.932 243.112 229.748 243.112C230.468 243.112 231.02 243.352 231.452 243.808C231.86 244.264 232.076 244.912 232.076 245.728V253H234.668V245.56C234.668 244.072 234.236 242.896 233.42 242.008C232.58 241.144 231.476 240.688 230.132 240.688ZM244.234 240.688C242.41 240.688 240.994 241.384 240.034 242.728V241H237.442V257.8H240.034V251.296C240.994 252.64 242.41 253.312 244.234 253.312C245.866 253.312 247.282 252.712 248.458 251.488C249.61 250.288 250.21 248.776 250.21 247C250.21 245.248 249.61 243.76 248.458 242.536C247.282 241.312 245.866 240.688 244.234 240.688ZM243.826 250.84C242.722 250.84 241.834 250.48 241.114 249.76C240.394 249.04 240.034 248.104 240.034 247C240.034 245.896 240.394 244.984 241.114 244.264C241.834 243.544 242.722 243.16 243.826 243.16C244.906 243.16 245.818 243.544 246.538 244.264C247.258 244.984 247.618 245.896 247.618 247C247.618 248.104 247.258 249.04 246.538 249.76C245.818 250.48 244.906 250.84 243.826 250.84ZM252.559 253H255.151V235.48H252.559V253ZM260.2 248.104H269.752C269.8 247.672 269.848 247.312 269.848 247.024C269.848 245.272 269.272 243.784 268.144 242.536C267.016 241.312 265.576 240.688 263.824 240.688C261.952 240.688 260.44 241.312 259.264 242.512C258.064 243.712 257.488 245.224 257.488 247C257.488 248.824 258.088 250.336 259.288 251.536C260.488 252.736 262.048 253.312 264.016 253.312C266.32 253.312 268.072 252.448 269.272 250.696L267.136 249.448C266.44 250.456 265.408 250.936 264.04 250.936C263.032 250.936 262.192 250.696 261.52 250.216C260.824 249.736 260.392 249.016 260.2 248.104ZM260.176 245.992C260.344 245.08 260.752 244.36 261.4 243.832C262.024 243.304 262.84 243.04 263.8 243.04C264.64 243.04 265.384 243.304 266.008 243.784C266.632 244.288 267.04 245.032 267.232 245.992H260.176ZM280.457 244.312C280.457 243.904 280.625 243.592 280.961 243.376C281.297 243.16 281.705 243.04 282.209 243.04C283.289 243.04 284.033 243.496 284.465 244.408L286.649 243.184C286.217 242.416 285.617 241.792 284.849 241.36C284.081 240.928 283.193 240.688 282.209 240.688C280.961 240.688 279.905 241.024 279.065 241.696C278.225 242.368 277.817 243.256 277.817 244.36C277.817 245.176 278.033 245.824 278.465 246.352C278.897 246.88 279.449 247.24 280.097 247.456C280.721 247.696 281.369 247.888 281.993 248.056C282.617 248.224 283.169 248.416 283.601 248.656C284.033 248.896 284.273 249.208 284.273 249.592C284.273 250.504 283.577 250.936 282.233 250.936C280.865 250.936 279.977 250.36 279.569 249.208L277.337 250.504C277.721 251.392 278.321 252.088 279.185 252.568C280.025 253.072 281.033 253.312 282.233 253.312C283.577 253.312 284.681 253 285.569 252.328C286.457 251.68 286.913 250.768 286.913 249.616C286.913 248.8 286.673 248.128 286.241 247.6C285.809 247.072 285.257 246.688 284.633 246.448C283.985 246.232 283.337 246.04 282.713 245.872C282.089 245.704 281.537 245.512 281.105 245.272C280.673 245.032 280.457 244.72 280.457 244.312ZM290.927 248.104H300.479C300.527 247.672 300.575 247.312 300.575 247.024C300.575 245.272 299.999 243.784 298.871 242.536C297.743 241.312 296.303 240.688 294.551 240.688C292.679 240.688 291.167 241.312 289.991 242.512C288.791 243.712 288.215 245.224 288.215 247C288.215 248.824 288.815 250.336 290.015 251.536C291.215 252.736 292.775 253.312 294.743 253.312C297.047 253.312 298.799 252.448 299.999 250.696L297.863 249.448C297.167 250.456 296.135 250.936 294.767 250.936C293.759 250.936 292.919 250.696 292.247 250.216C291.551 249.736 291.119 249.016 290.927 248.104ZM290.903 245.992C291.071 245.08 291.479 244.36 292.127 243.832C292.751 243.304 293.567 243.04 294.527 243.04C295.367 243.04 296.111 243.304 296.735 243.784C297.359 244.288 297.767 245.032 297.959 245.992H290.903ZM305.448 243.016V241H302.856V253H305.448V246.952C305.448 245.728 305.808 244.84 306.552 244.312C307.272 243.784 308.136 243.544 309.144 243.592V240.784C307.32 240.784 306.096 241.528 305.448 243.016ZM319.195 241L315.859 250.12L312.499 241H309.667L314.347 253H317.347L322.027 241H319.195ZM325.24 248.104H334.792C334.84 247.672 334.888 247.312 334.888 247.024C334.888 245.272 334.312 243.784 333.184 242.536C332.056 241.312 330.616 240.688 328.864 240.688C326.992 240.688 325.48 241.312 324.304 242.512C323.104 243.712 322.528 245.224 322.528 247C322.528 248.824 323.128 250.336 324.328 251.536C325.528 252.736 327.088 253.312 329.056 253.312C331.36 253.312 333.112 252.448 334.312 250.696L332.176 249.448C331.48 250.456 330.448 250.936 329.08 250.936C328.072 250.936 327.232 250.696 326.56 250.216C325.864 249.736 325.432 249.016 325.24 248.104ZM325.215 245.992C325.384 245.08 325.792 244.36 326.44 243.832C327.064 243.304 327.88 243.04 328.84 243.04C329.68 243.04 330.424 243.304 331.048 243.784C331.672 244.288 332.08 245.032 332.272 245.992H325.215ZM339.76 243.016V241H337.168V253H339.76V246.952C339.76 245.728 340.12 244.84 340.864 244.312C341.584 243.784 342.448 243.544 343.456 243.592V240.784C341.632 240.784 340.408 241.528 339.76 243.016ZM345.371 253H347.963V235.48H345.371V253ZM353.013 248.104H362.565C362.613 247.672 362.661 247.312 362.661 247.024C362.661 245.272 362.085 243.784 360.957 242.536C359.829 241.312 358.389 240.688 356.637 240.688C354.765 240.688 353.253 241.312 352.077 242.512C350.877 243.712 350.301 245.224 350.301 247C350.301 248.824 350.901 250.336 352.101 251.536C353.301 252.736 354.861 253.312 356.829 253.312C359.133 253.312 360.885 252.448 362.085 250.696L359.949 249.448C359.253 250.456 358.221 250.936 356.853 250.936C355.845 250.936 355.005 250.696 354.333 250.216C353.637 249.736 353.205 249.016 353.013 248.104ZM352.989 245.992C353.157 245.08 353.565 244.36 354.213 243.832C354.837 243.304 355.653 243.04 356.613 243.04C357.453 243.04 358.197 243.304 358.821 243.784C359.445 244.288 359.853 245.032 360.045 245.992H352.989ZM366.801 244.312C366.801 243.904 366.969 243.592 367.305 243.376C367.641 243.16 368.049 243.04 368.553 243.04C369.633 243.04 370.377 243.496 370.809 244.408L372.993 243.184C372.561 242.416 371.961 241.792 371.193 241.36C370.425 240.928 369.537 240.688 368.553 240.688C367.305 240.688 366.249 241.024 365.409 241.696C364.569 242.368 364.161 243.256 364.161 244.36C364.161 245.176 364.377 245.824 364.809 246.352C365.241 246.88 365.793 247.24 366.441 247.456C367.065 247.696 367.713 247.888 368.337 248.056C368.961 248.224 369.513 248.416 369.945 248.656C370.377 248.896 370.617 249.208 370.617 249.592C370.617 250.504 369.921 250.936 368.577 250.936C367.209 250.936 366.321 250.36 365.913 249.208L363.681 250.504C364.065 251.392 364.665 252.088 365.529 252.568C366.369 253.072 367.377 253.312 368.577 253.312C369.921 253.312 371.025 253 371.913 252.328C372.801 251.68 373.257 250.768 373.257 249.616C373.257 248.8 373.017 248.128 372.585 247.6C372.153 247.072 371.601 246.688 370.977 246.448C370.329 246.232 369.681 246.04 369.057 245.872C368.433 245.704 367.881 245.512 367.449 245.272C367.017 245.032 366.801 244.72 366.801 244.312ZM377.137 244.312C377.137 243.904 377.305 243.592 377.641 243.376C377.977 243.16 378.385 243.04 378.889 243.04C379.969 243.04 380.713 243.496 381.145 244.408L383.329 243.184C382.897 242.416 382.297 241.792 381.529 241.36C380.761 240.928 379.873 240.688 378.889 240.688C377.641 240.688 376.585 241.024 375.745 241.696C374.905 242.368 374.497 243.256 374.497 244.36C374.497 245.176 374.713 245.824 375.145 246.352C375.577 246.88 376.129 247.24 376.777 247.456C377.401 247.696 378.049 247.888 378.673 248.056C379.297 248.224 379.849 248.416 380.281 248.656C380.713 248.896 380.953 249.208 380.953 249.592C380.953 250.504 380.257 250.936 378.913 250.936C377.545 250.936 376.657 250.36 376.249 249.208L374.017 250.504C374.401 251.392 375.001 252.088 375.865 252.568C376.705 253.072 377.713 253.312 378.913 253.312C380.257 253.312 381.361 253 382.249 252.328C383.137 251.68 383.593 250.768 383.593 249.616C383.593 248.8 383.353 248.128 382.921 247.6C382.489 247.072 381.937 246.688 381.313 246.448C380.665 246.232 380.017 246.04 379.393 245.872C378.769 245.704 378.217 245.512 377.785 245.272C377.353 245.032 377.137 244.72 377.137 244.312ZM399.959 241V247.432C399.959 248.608 399.671 249.472 399.119 250.048C398.543 250.624 397.823 250.888 396.911 250.888C396.071 250.888 395.423 250.648 394.943 250.168C394.463 249.688 394.223 249.016 394.223 248.104V241H391.631V248.368C391.631 249.904 392.039 251.128 392.903 251.992C393.743 252.88 394.847 253.312 396.239 253.312C397.919 253.312 399.167 252.712 399.959 251.464V253H402.551V241H399.959ZM408.174 243.016V241H405.582V253H408.174V246.952C408.174 245.728 408.534 244.84 409.278 244.312C409.998 243.784 410.862 243.544 411.87 243.592V240.784C410.046 240.784 408.822 241.528 408.174 243.016ZM413.785 253H416.377V235.48H413.785V253ZM427.715 244.312C427.715 243.904 427.883 243.592 428.219 243.376C428.555 243.16 428.963 243.04 429.467 243.04C430.547 243.04 431.291 243.496 431.723 244.408L433.907 243.184C433.475 242.416 432.875 241.792 432.107 241.36C431.339 240.928 430.451 240.688 429.467 240.688C428.219 240.688 427.163 241.024 426.323 241.696C425.483 242.368 425.075 243.256 425.075 244.36C425.075 245.176 425.291 245.824 425.723 246.352C426.155 246.88 426.707 247.24 427.355 247.456C427.979 247.696 428.627 247.888 429.251 248.056C429.875 248.224 430.427 248.416 430.859 248.656C431.291 248.896 431.531 249.208 431.531 249.592C431.531 250.504 430.835 250.936 429.491 250.936C428.123 250.936 427.235 250.36 426.827 249.208L424.595 250.504C424.979 251.392 425.579 252.088 426.443 252.568C427.283 253.072 428.291 253.312 429.491 253.312C430.835 253.312 431.939 253 432.827 252.328C433.715 251.68 434.171 250.768 434.171 249.616C434.171 248.8 433.931 248.128 433.499 247.6C433.067 247.072 432.515 246.688 431.891 246.448C431.243 246.232 430.595 246.04 429.971 245.872C429.347 245.704 428.795 245.512 428.363 245.272C427.931 245.032 427.715 244.72 427.715 244.312ZM442.621 240.688C440.917 240.688 439.669 241.312 438.901 242.536V236.2H436.309V253H438.901V246.568C438.901 245.416 439.165 244.552 439.741 243.976C440.293 243.4 441.037 243.112 441.949 243.112C442.765 243.112 443.437 243.352 443.917 243.832C444.397 244.312 444.637 245.008 444.637 245.896V253H447.229V245.632C447.229 244.096 446.797 242.896 445.957 242.008C445.093 241.144 443.989 240.688 442.621 240.688ZM455.684 253.312C457.46 253.312 458.948 252.712 460.172 251.488C461.396 250.288 462.02 248.776 462.02 247C462.02 245.224 461.396 243.736 460.172 242.512C458.948 241.312 457.46 240.688 455.684 240.688C453.908 240.688 452.42 241.312 451.196 242.512C449.948 243.736 449.348 245.224 449.348 247C449.348 248.776 449.948 250.288 451.196 251.488C452.42 252.712 453.908 253.312 455.684 253.312ZM455.684 250.792C454.628 250.792 453.74 250.432 453.02 249.712C452.3 248.992 451.94 248.104 451.94 247C451.94 245.92 452.3 245.008 453.02 244.288C453.74 243.568 454.628 243.208 455.684 243.208C456.74 243.208 457.628 243.568 458.348 244.288C459.068 245.008 459.428 245.92 459.428 247C459.428 248.104 459.068 248.992 458.348 249.712C457.628 250.432 456.74 250.792 455.684 250.792ZM466.956 243.016V241H464.364V253H466.956V246.952C466.956 245.728 467.316 244.84 468.06 244.312C468.78 243.784 469.644 243.544 470.652 243.592V240.784C468.828 240.784 467.604 241.528 466.956 243.016ZM479.567 243.496V241H476.591V237.64L473.999 238.408V241H471.791V243.496H473.999V249.256C473.999 250.84 474.431 251.92 475.295 252.496C476.159 253.072 477.575 253.24 479.567 253V250.672C478.895 250.72 478.343 250.72 477.911 250.696C477.479 250.672 477.143 250.552 476.927 250.336C476.687 250.12 476.591 249.76 476.591 249.256V243.496H479.567ZM483.466 248.104H493.018C493.066 247.672 493.114 247.312 493.114 247.024C493.114 245.272 492.538 243.784 491.41 242.536C490.282 241.312 488.842 240.688 487.09 240.688C485.218 240.688 483.706 241.312 482.53 242.512C481.33 243.712 480.754 245.224 480.754 247C480.754 248.824 481.354 250.336 482.554 251.536C483.754 252.736 485.314 253.312 487.282 253.312C489.586 253.312 491.338 252.448 492.538 250.696L490.402 249.448C489.706 250.456 488.674 250.936 487.306 250.936C486.298 250.936 485.458 250.696 484.786 250.216C484.09 249.736 483.658 249.016 483.466 248.104ZM483.442 245.992C483.61 245.08 484.018 244.36 484.666 243.832C485.29 243.304 486.106 243.04 487.066 243.04C487.906 243.04 488.65 243.304 489.274 243.784C489.898 244.288 490.306 245.032 490.498 245.992H483.442ZM501.707 240.688C500.003 240.688 498.755 241.312 497.987 242.536V241H495.395V253H497.987V246.568C497.987 245.416 498.251 244.552 498.827 243.976C499.379 243.4 500.123 243.112 501.035 243.112C501.851 243.112 502.523 243.352 503.003 243.832C503.483 244.312 503.723 245.008 503.723 245.896V253H506.315V245.632C506.315 244.096 505.883 242.896 505.043 242.008C504.179 241.144 503.075 240.688 501.707 240.688ZM511.146 248.104H520.698C520.746 247.672 520.794 247.312 520.794 247.024C520.794 245.272 520.218 243.784 519.09 242.536C517.962 241.312 516.522 240.688 514.77 240.688C512.898 240.688 511.386 241.312 510.21 242.512C509.01 243.712 508.434 245.224 508.434 247C508.434 248.824 509.034 250.336 510.234 251.536C511.434 252.736 512.994 253.312 514.962 253.312C517.266 253.312 519.018 252.448 520.218 250.696L518.082 249.448C517.386 250.456 516.354 250.936 514.986 250.936C513.978 250.936 513.138 250.696 512.466 250.216C511.77 249.736 511.338 249.016 511.146 248.104ZM511.122 245.992C511.29 245.08 511.698 244.36 512.346 243.832C512.97 243.304 513.786 243.04 514.746 243.04C515.586 243.04 516.33 243.304 516.954 243.784C517.578 244.288 517.986 245.032 518.178 245.992H511.122ZM525.667 243.016V241H523.075V253H525.667V246.952C525.667 245.728 526.027 244.84 526.771 244.312C527.491 243.784 528.355 243.544 529.363 243.592V240.784C527.539 240.784 526.315 241.528 525.667 243.016ZM550.382 240.688C548.726 240.688 547.502 241.336 546.71 242.584C545.966 241.336 544.838 240.688 543.302 240.688C541.766 240.688 540.638 241.288 539.87 242.44V241H537.278V253H539.87V246.28C539.87 245.248 540.11 244.456 540.614 243.928C541.094 243.4 541.742 243.112 542.534 243.112C543.254 243.112 543.806 243.352 544.19 243.808C544.574 244.264 544.79 244.912 544.79 245.728V253H547.382V246.28C547.382 245.224 547.598 244.432 548.078 243.904C548.558 243.376 549.182 243.112 549.998 243.112C550.718 243.112 551.27 243.352 551.702 243.808C552.11 244.264 552.326 244.912 552.326 245.728V253H554.918V245.56C554.918 244.072 554.486 242.896 553.67 242.008C552.83 241.144 551.726 240.688 550.382 240.688ZM567.196 241V242.704C566.212 241.36 564.82 240.688 562.996 240.688C561.34 240.688 559.924 241.312 558.772 242.512C557.596 243.736 557.02 245.224 557.02 247C557.02 248.776 557.596 250.264 558.772 251.488C559.924 252.712 561.34 253.312 562.996 253.312C564.82 253.312 566.212 252.64 567.196 251.272V253H569.788V241H567.196ZM563.404 250.84C562.3 250.84 561.412 250.48 560.692 249.76C559.972 249.04 559.612 248.104 559.612 247C559.612 245.896 559.972 244.984 560.692 244.264C561.412 243.544 562.3 243.16 563.404 243.16C564.484 243.16 565.396 243.544 566.116 244.264C566.836 244.984 567.196 245.896 567.196 247C567.196 248.104 566.836 249.04 566.116 249.76C565.396 250.48 564.484 250.84 563.404 250.84ZM582.313 236.2V242.704C581.329 241.36 579.937 240.688 578.113 240.688C576.457 240.688 575.041 241.312 573.889 242.512C572.713 243.736 572.137 245.224 572.137 247C572.137 248.776 572.713 250.264 573.889 251.488C575.041 252.712 576.457 253.312 578.113 253.312C579.937 253.312 581.329 252.64 582.313 251.272V253H584.905V236.2H582.313ZM578.521 250.84C577.417 250.84 576.529 250.48 575.809 249.76C575.089 249.04 574.729 248.104 574.729 247C574.729 245.896 575.089 244.984 575.809 244.264C576.529 243.544 577.417 243.16 578.521 243.16C579.601 243.16 580.513 243.544 581.233 244.264C581.953 244.984 582.313 245.896 582.313 247C582.313 248.104 581.953 249.04 581.233 249.76C580.513 250.48 579.601 250.84 578.521 250.84ZM589.966 248.104H599.518C599.566 247.672 599.614 247.312 599.614 247.024C599.614 245.272 599.038 243.784 597.91 242.536C596.782 241.312 595.342 240.688 593.59 240.688C591.718 240.688 590.206 241.312 589.03 242.512C587.83 243.712 587.254 245.224 587.254 247C587.254 248.824 587.854 250.336 589.054 251.536C590.254 252.736 591.814 253.312 593.782 253.312C596.086 253.312 597.838 252.448 599.038 250.696L596.902 249.448C596.206 250.456 595.174 250.936 593.806 250.936C592.798 250.936 591.958 250.696 591.286 250.216C590.59 249.736 590.158 249.016 589.966 248.104ZM589.942 245.992C590.11 245.08 590.518 244.36 591.166 243.832C591.79 243.304 592.606 243.04 593.566 243.04C594.406 243.04 595.15 243.304 595.774 243.784C596.398 244.288 596.806 245.032 596.998 245.992H589.942ZM621.719 241L619.367 249.28L616.871 241H614.399L611.879 249.28L609.551 241H606.815L610.583 253H613.127L615.647 244.912L618.143 253H620.687L624.455 241H621.719ZM627.66 239.2C628.092 239.2 628.476 239.056 628.812 238.72C629.148 238.384 629.316 238 629.316 237.544C629.316 237.112 629.148 236.728 628.836 236.392C628.5 236.056 628.116 235.888 627.66 235.888C627.18 235.888 626.796 236.056 626.484 236.392C626.148 236.728 626.004 237.112 626.004 237.544C626.004 238 626.148 238.384 626.484 238.72C626.82 239.056 627.204 239.2 627.66 239.2ZM626.364 253H628.956V241H626.364V253ZM638.661 243.496V241H635.685V237.64L633.093 238.408V241H630.885V243.496H633.093V249.256C633.093 250.84 633.525 251.92 634.389 252.496C635.253 253.072 636.669 253.24 638.661 253V250.672C637.989 250.72 637.437 250.72 637.005 250.696C636.573 250.672 636.237 250.552 636.021 250.336C635.781 250.12 635.685 249.76 635.685 249.256V243.496H638.661ZM647.324 240.688C645.62 240.688 644.372 241.312 643.604 242.536V236.2H641.012V253H643.604V246.568C643.604 245.416 643.868 244.552 644.444 243.976C644.996 243.4 645.74 243.112 646.652 243.112C647.468 243.112 648.14 243.352 648.62 243.832C649.1 244.312 649.34 245.008 649.34 245.896V253H651.932V245.632C651.932 244.096 651.5 242.896 650.66 242.008C649.796 241.144 648.692 240.688 647.324 240.688ZM676.971 236.2H674.019L668.931 244.6L663.867 236.2H660.891V253H663.651V241L668.763 249.472H669.099L674.211 241.024V253H676.971V236.2ZM685.817 253.312C687.593 253.312 689.081 252.712 690.305 251.488C691.529 250.288 692.153 248.776 692.153 247C692.153 245.224 691.529 243.736 690.305 242.512C689.081 241.312 687.593 240.688 685.817 240.688C684.041 240.688 682.553 241.312 681.329 242.512C680.081 243.736 679.481 245.224 679.481 247C679.481 248.776 680.081 250.288 681.329 251.488C682.553 252.712 684.041 253.312 685.817 253.312ZM685.817 250.792C684.761 250.792 683.873 250.432 683.153 249.712C682.433 248.992 682.073 248.104 682.073 247C682.073 245.92 682.433 245.008 683.153 244.288C683.873 243.568 684.761 243.208 685.817 243.208C686.873 243.208 687.761 243.568 688.481 244.288C689.201 245.008 689.561 245.92 689.561 247C689.561 248.104 689.201 248.992 688.481 249.712C687.761 250.432 686.873 250.792 685.817 250.792ZM700.808 240.688C699.104 240.688 697.856 241.312 697.088 242.536V241H694.496V253H697.088V246.568C697.088 245.416 697.352 244.552 697.928 243.976C698.48 243.4 699.224 243.112 700.136 243.112C700.952 243.112 701.624 243.352 702.104 243.832C702.584 244.312 702.824 245.008 702.824 245.896V253H705.416V245.632C705.416 244.096 704.984 242.896 704.144 242.008C703.28 241.144 702.176 240.688 700.808 240.688ZM717.759 241V242.776C716.775 241.384 715.383 240.688 713.583 240.688C711.879 240.688 710.439 241.312 709.287 242.512C708.111 243.712 707.535 245.176 707.535 246.88C707.535 248.608 708.111 250.072 709.287 251.272C710.439 252.472 711.879 253.072 713.583 253.072C715.383 253.072 716.775 252.376 717.759 250.984V252.448C717.759 253.504 717.423 254.32 716.799 254.896C716.175 255.472 715.287 255.76 714.183 255.76C712.455 255.76 711.303 255.16 710.679 253.912L708.447 255.208C709.455 257.152 711.351 258.112 714.135 258.112C715.839 258.112 717.303 257.632 718.503 256.648C719.703 255.688 720.303 254.272 720.303 252.448V241H717.759ZM713.943 250.648C712.839 250.648 711.927 250.288 711.207 249.568C710.487 248.848 710.127 247.96 710.127 246.88C710.127 245.824 710.487 244.912 711.207 244.192C711.927 243.472 712.839 243.112 713.943 243.112C715.023 243.112 715.935 243.472 716.655 244.192C717.375 244.912 717.759 245.824 717.759 246.88C717.759 247.96 717.375 248.848 716.655 249.568C715.935 250.288 715.023 250.648 713.943 250.648ZM728.989 253.312C730.765 253.312 732.253 252.712 733.477 251.488C734.701 250.288 735.325 248.776 735.325 247C735.325 245.224 734.701 243.736 733.477 242.512C732.253 241.312 730.765 240.688 728.989 240.688C727.213 240.688 725.725 241.312 724.501 242.512C723.253 243.736 722.653 245.224 722.653 247C722.653 248.776 723.253 250.288 724.501 251.488C725.725 252.712 727.213 253.312 728.989 253.312ZM728.989 250.792C727.933 250.792 727.045 250.432 726.325 249.712C725.605 248.992 725.245 248.104 725.245 247C725.245 245.92 725.605 245.008 726.325 244.288C727.045 243.568 727.933 243.208 728.989 243.208C730.045 243.208 730.933 243.568 731.653 244.288C732.373 245.008 732.733 245.92 732.733 247C732.733 248.104 732.373 248.992 731.653 249.712C730.933 250.432 730.045 250.792 728.989 250.792ZM750.436 236.2H743.836V253H750.436C752.74 253 754.636 252.208 756.172 250.576C757.708 248.944 758.476 246.952 758.476 244.6C758.476 242.248 757.708 240.256 756.172 238.624C754.636 237.016 752.74 236.2 750.436 236.2ZM750.436 250.36H746.596V238.84H750.436C752.02 238.84 753.292 239.392 754.3 240.472C755.308 241.552 755.812 242.92 755.812 244.6C755.812 246.28 755.308 247.648 754.3 248.728C753.292 249.832 752.02 250.36 750.436 250.36ZM770.881 244.288C772.009 243.472 772.585 242.32 772.585 240.856C772.585 239.536 772.105 238.432 771.145 237.544C770.185 236.656 769.033 236.2 767.665 236.2H760.993V253H768.193C769.585 253 770.785 252.544 771.769 251.632C772.729 250.72 773.233 249.592 773.233 248.2C773.233 247.336 773.017 246.544 772.609 245.872C772.177 245.2 771.601 244.672 770.881 244.288ZM767.665 238.792C768.265 238.792 768.769 239.008 769.201 239.44C769.609 239.872 769.825 240.376 769.825 241C769.825 241.624 769.609 242.152 769.201 242.584C768.769 243.016 768.265 243.208 767.665 243.208H763.753V238.792H767.665ZM768.193 250.408H763.753V245.704H768.193C768.817 245.704 769.369 245.944 769.801 246.4C770.233 246.856 770.473 247.408 770.473 248.056C770.473 248.728 770.233 249.28 769.801 249.736C769.369 250.192 768.817 250.408 768.193 250.408ZM790.977 241V242.704C789.993 241.36 788.601 240.688 786.777 240.688C785.121 240.688 783.705 241.312 782.553 242.512C781.377 243.736 780.801 245.224 780.801 247C780.801 248.776 781.377 250.264 782.553 251.488C783.705 252.712 785.121 253.312 786.777 253.312C788.601 253.312 789.993 252.64 790.977 251.272V253H793.569V241H790.977ZM787.185 250.84C786.081 250.84 785.193 250.48 784.473 249.76C783.753 249.04 783.393 248.104 783.393 247C783.393 245.896 783.753 244.984 784.473 244.264C785.193 243.544 786.081 243.16 787.185 243.16C788.265 243.16 789.177 243.544 789.897 244.264C790.617 244.984 790.977 245.896 790.977 247C790.977 248.104 790.617 249.04 789.897 249.76C789.177 250.48 788.265 250.84 787.185 250.84ZM802.902 240.688C801.198 240.688 799.95 241.312 799.182 242.536V241H796.59V253H799.182V246.568C799.182 245.416 799.446 244.552 800.022 243.976C800.574 243.4 801.318 243.112 802.23 243.112C803.046 243.112 803.718 243.352 804.198 243.832C804.678 244.312 804.918 245.008 804.918 245.896V253H807.51V245.632C807.51 244.096 807.078 242.896 806.238 242.008C805.374 241.144 804.27 240.688 802.902 240.688ZM819.805 236.2V242.704C818.821 241.36 817.429 240.688 815.605 240.688C813.949 240.688 812.533 241.312 811.381 242.512C810.205 243.736 809.629 245.224 809.629 247C809.629 248.776 810.205 250.264 811.381 251.488C812.533 252.712 813.949 253.312 815.605 253.312C817.429 253.312 818.821 252.64 819.805 251.272V253H822.397V236.2H819.805ZM816.013 250.84C814.909 250.84 814.021 250.48 813.301 249.76C812.581 249.04 812.221 248.104 812.221 247C812.221 245.896 812.581 244.984 813.301 244.264C814.021 243.544 814.909 243.16 816.013 243.16C817.093 243.16 818.005 243.544 818.725 244.264C819.445 244.984 819.805 245.896 819.805 247C819.805 248.104 819.445 249.04 818.725 249.76C818.005 250.48 817.093 250.84 816.013 250.84ZM835.858 253H839.17L845.002 236.2H842.002L837.514 249.664L833.05 236.2H830.026L835.858 253ZM847.24 248.104H856.792C856.84 247.672 856.888 247.312 856.888 247.024C856.888 245.272 856.312 243.784 855.184 242.536C854.056 241.312 852.616 240.688 850.864 240.688C848.992 240.688 847.48 241.312 846.304 242.512C845.104 243.712 844.528 245.224 844.528 247C844.528 248.824 845.128 250.336 846.328 251.536C847.528 252.736 849.088 253.312 851.056 253.312C853.36 253.312 855.112 252.448 856.312 250.696L854.176 249.448C853.48 250.456 852.448 250.936 851.08 250.936C850.072 250.936 849.232 250.696 848.56 250.216C847.864 249.736 847.432 249.016 847.24 248.104ZM847.215 245.992C847.384 245.08 847.792 244.36 848.44 243.832C849.064 243.304 849.88 243.04 850.84 243.04C851.68 243.04 852.424 243.304 853.048 243.784C853.672 244.288 854.08 245.032 854.272 245.992H847.215ZM861.76 243.016V241H859.168V253H861.76V246.952C861.76 245.728 862.12 244.84 862.864 244.312C863.584 243.784 864.448 243.544 865.456 243.592V240.784C863.632 240.784 862.408 241.528 861.76 243.016ZM872.473 253.312C873.625 253.312 874.705 253.048 875.665 252.472C876.625 251.92 877.345 251.152 877.873 250.192L875.641 248.92C875.353 249.496 874.921 249.928 874.345 250.264C873.769 250.6 873.145 250.768 872.449 250.768C871.393 250.768 870.505 250.408 869.785 249.688C869.065 248.968 868.729 248.08 868.729 247C868.729 245.944 869.065 245.032 869.785 244.312C870.505 243.592 871.393 243.232 872.449 243.232C873.169 243.232 873.793 243.4 874.345 243.736C874.897 244.072 875.305 244.504 875.593 245.08L877.825 243.784C877.345 242.848 876.625 242.104 875.665 241.528C874.705 240.976 873.625 240.688 872.473 240.688C870.649 240.688 869.137 241.312 867.937 242.512C866.737 243.712 866.137 245.224 866.137 247C866.137 248.776 866.737 250.288 867.937 251.488C869.137 252.712 870.649 253.312 872.473 253.312ZM881.599 248.104H891.151C891.199 247.672 891.247 247.312 891.247 247.024C891.247 245.272 890.671 243.784 889.543 242.536C888.415 241.312 886.975 240.688 885.223 240.688C883.351 240.688 881.839 241.312 880.663 242.512C879.463 243.712 878.887 245.224 878.887 247C878.887 248.824 879.487 250.336 880.687 251.536C881.887 252.736 883.447 253.312 885.415 253.312C887.719 253.312 889.471 252.448 890.671 250.696L888.535 249.448C887.839 250.456 886.807 250.936 885.439 250.936C884.431 250.936 883.591 250.696 882.919 250.216C882.223 249.736 881.791 249.016 881.599 248.104ZM881.575 245.992C881.743 245.08 882.151 244.36 882.799 243.832C883.423 243.304 884.239 243.04 885.199 243.04C886.039 243.04 886.783 243.304 887.407 243.784C888.031 244.288 888.439 245.032 888.631 245.992H881.575ZM893.528 253H896.12V235.48H893.528V253ZM900.689 253.288C901.169 253.288 901.601 253.12 901.961 252.76C902.297 252.424 902.489 251.992 902.489 251.488C902.489 251.008 902.297 250.576 901.961 250.216C901.601 249.88 901.169 249.688 900.689 249.688C900.161 249.688 899.729 249.88 899.393 250.216C899.057 250.576 898.889 251.008 898.889 251.488C898.889 251.992 899.057 252.424 899.417 252.76C899.753 253.12 900.185 253.288 900.689 253.288Z" fill="#959595"/>
<circle cx="363" cy="295" r="3" fill="#C4C4C4"/>
<circle cx="494" cy="295" r="3" fill="#C4C4C4"/>
<circle cx="639" cy="295" r="3" fill="#C4C4C4"/>
<circle cx="753" cy="295" r="3" fill="#C4C4C4"/>
<path d="M390.408 302H393.432L389.616 295.472C390.6 295.088 391.392 294.44 392.016 293.552C392.64 292.664 392.952 291.68 392.952 290.6C392.952 289.112 392.424 287.84 391.368 286.784C390.312 285.728 389.04 285.2 387.552 285.2H380.832V302H383.592V295.88H386.856L390.408 302ZM383.592 287.792H387.552C388.272 287.792 388.896 288.08 389.424 288.608C389.928 289.16 390.192 289.832 390.192 290.6C390.192 291.392 389.928 292.064 389.424 292.592C388.896 293.144 388.272 293.408 387.552 293.408H383.592V287.792ZM396.79 297.104H406.342C406.39 296.672 406.438 296.312 406.438 296.024C406.438 294.272 405.862 292.784 404.734 291.536C403.606 290.312 402.166 289.688 400.414 289.688C398.542 289.688 397.03 290.312 395.854 291.512C394.654 292.712 394.078 294.224 394.078 296C394.078 297.824 394.678 299.336 395.878 300.536C397.078 301.736 398.638 302.312 400.606 302.312C402.91 302.312 404.662 301.448 405.862 299.696L403.726 298.448C403.03 299.456 401.998 299.936 400.63 299.936C399.622 299.936 398.782 299.696 398.11 299.216C397.414 298.736 396.982 298.016 396.79 297.104ZM396.766 294.992C396.934 294.08 397.342 293.36 397.99 292.832C398.614 292.304 399.43 292.04 400.39 292.04C401.23 292.04 401.974 292.304 402.598 292.784C403.222 293.288 403.63 294.032 403.822 294.992H396.766ZM418.153 290V291.704C417.169 290.36 415.777 289.688 413.953 289.688C412.297 289.688 410.881 290.312 409.729 291.512C408.553 292.736 407.977 294.224 407.977 296C407.977 297.776 408.553 299.264 409.729 300.488C410.881 301.712 412.297 302.312 413.953 302.312C415.777 302.312 417.169 301.64 418.153 300.272V302H420.745V290H418.153ZM414.361 299.84C413.257 299.84 412.369 299.48 411.649 298.76C410.929 298.04 410.569 297.104 410.569 296C410.569 294.896 410.929 293.984 411.649 293.264C412.369 292.544 413.257 292.16 414.361 292.16C415.441 292.16 416.353 292.544 417.073 293.264C417.793 293.984 418.153 294.896 418.153 296C418.153 297.104 417.793 298.04 417.073 298.76C416.353 299.48 415.441 299.84 414.361 299.84ZM429.43 302.312C430.582 302.312 431.662 302.048 432.622 301.472C433.582 300.92 434.302 300.152 434.83 299.192L432.598 297.92C432.31 298.496 431.878 298.928 431.302 299.264C430.726 299.6 430.102 299.768 429.406 299.768C428.35 299.768 427.462 299.408 426.742 298.688C426.022 297.968 425.686 297.08 425.686 296C425.686 294.944 426.022 294.032 426.742 293.312C427.462 292.592 428.35 292.232 429.406 292.232C430.126 292.232 430.75 292.4 431.302 292.736C431.854 293.072 432.262 293.504 432.55 294.08L434.782 292.784C434.302 291.848 433.582 291.104 432.622 290.528C431.662 289.976 430.582 289.688 429.43 289.688C427.606 289.688 426.094 290.312 424.894 291.512C423.694 292.712 423.094 294.224 423.094 296C423.094 297.776 423.694 299.288 424.894 300.488C426.094 301.712 427.606 302.312 429.43 302.312ZM443.399 292.496V290H440.423V286.64L437.831 287.408V290H435.623V292.496H437.831V298.256C437.831 299.84 438.263 300.92 439.127 301.496C439.991 302.072 441.407 302.24 443.399 302V299.672C442.727 299.72 442.175 299.72 441.743 299.696C441.311 299.672 440.975 299.552 440.759 299.336C440.519 299.12 440.423 298.76 440.423 298.256V292.496H443.399ZM456.595 302.312C458.275 302.312 459.643 301.856 460.747 300.92C461.827 299.984 462.379 298.64 462.379 296.912V285.2H459.619V296.912C459.619 297.776 459.355 298.448 458.827 298.928C458.299 299.408 457.579 299.624 456.619 299.624C455.131 299.624 454.099 299.048 453.571 297.848L451.195 299.24C452.179 301.304 453.979 302.312 456.595 302.312ZM471.174 302.312C472.95 302.312 474.366 301.88 475.47 300.992C476.574 300.104 477.126 298.904 477.126 297.368C477.126 296.84 477.054 296.336 476.934 295.904C476.79 295.472 476.574 295.088 476.262 294.752C475.95 294.416 475.662 294.152 475.398 293.912C475.11 293.696 474.702 293.48 474.174 293.24C473.646 293.024 473.214 292.856 472.926 292.76C472.638 292.664 472.158 292.496 471.534 292.28C470.238 291.896 469.35 291.512 468.87 291.152C468.39 290.792 468.15 290.288 468.15 289.664C468.15 289.04 468.39 288.536 468.87 288.152C469.35 287.768 469.974 287.576 470.79 287.576C472.422 287.576 473.598 288.368 474.318 289.928L476.646 288.584C476.094 287.432 475.326 286.544 474.318 285.872C473.31 285.224 472.134 284.888 470.79 284.888C469.302 284.888 468.03 285.344 466.974 286.208C465.918 287.072 465.39 288.248 465.39 289.736C465.39 290.504 465.51 291.152 465.798 291.704C466.062 292.28 466.47 292.736 467.022 293.12C467.574 293.504 468.102 293.792 468.606 293.984C469.086 294.2 469.734 294.416 470.55 294.656C471.966 295.088 472.95 295.496 473.526 295.856C474.078 296.216 474.366 296.744 474.366 297.416C474.366 298.088 474.102 298.616 473.574 299.024C473.046 299.432 472.278 299.624 471.246 299.624C469.134 299.624 467.742 298.688 467.07 296.792L464.694 298.184C465.126 299.48 465.918 300.488 467.046 301.208C468.174 301.952 469.542 302.312 471.174 302.312Z" fill="#959595"/>
<path d="M240.819 302H243.795L237.723 285.2H234.411L228.315 302H231.315L232.491 298.616H239.643L240.819 302ZM233.403 296.024L236.067 288.44L238.731 296.024H233.403ZM251.746 289.688C250.042 289.688 248.794 290.312 248.026 291.536V290H245.434V302H248.026V295.568C248.026 294.416 248.29 293.552 248.866 292.976C249.418 292.4 250.162 292.112 251.074 292.112C251.89 292.112 252.562 292.352 253.042 292.832C253.522 293.312 253.762 294.008 253.762 294.896V302H256.354V294.632C256.354 293.096 255.922 291.896 255.082 291.008C254.218 290.144 253.114 289.688 251.746 289.688ZM265.841 292.496V290H262.865V286.64L260.273 287.408V290H258.065V292.496H260.273V298.256C260.273 299.84 260.705 300.92 261.569 301.496C262.433 302.072 263.849 302.24 265.841 302V299.672C265.169 299.72 264.617 299.72 264.185 299.696C263.753 299.672 263.417 299.552 263.201 299.336C262.961 299.12 262.865 298.76 262.865 298.256V292.496H265.841ZM281.077 285.2H274.477V302H281.077C283.381 302 285.277 301.208 286.813 299.576C288.349 297.944 289.117 295.952 289.117 293.6C289.117 291.248 288.349 289.256 286.813 287.624C285.277 286.016 283.381 285.2 281.077 285.2ZM281.077 299.36H277.237V287.84H281.077C282.661 287.84 283.933 288.392 284.941 289.472C285.949 290.552 286.453 291.92 286.453 293.6C286.453 295.28 285.949 296.648 284.941 297.728C283.933 298.832 282.661 299.36 281.077 299.36ZM293.505 297.104H303.057C303.105 296.672 303.153 296.312 303.153 296.024C303.153 294.272 302.577 292.784 301.449 291.536C300.321 290.312 298.881 289.688 297.129 289.688C295.257 289.688 293.745 290.312 292.569 291.512C291.369 292.712 290.793 294.224 290.793 296C290.793 297.824 291.393 299.336 292.593 300.536C293.793 301.736 295.353 302.312 297.321 302.312C299.625 302.312 301.377 301.448 302.577 299.696L300.441 298.448C299.745 299.456 298.713 299.936 297.345 299.936C296.337 299.936 295.497 299.696 294.825 299.216C294.129 298.736 293.697 298.016 293.505 297.104ZM293.481 294.992C293.649 294.08 294.057 293.36 294.705 292.832C295.329 292.304 296.145 292.04 297.105 292.04C297.945 292.04 298.689 292.304 299.313 292.784C299.937 293.288 300.345 294.032 300.537 294.992H293.481ZM307.293 293.312C307.293 292.904 307.461 292.592 307.797 292.376C308.133 292.16 308.541 292.04 309.045 292.04C310.125 292.04 310.869 292.496 311.301 293.408L313.485 292.184C313.053 291.416 312.453 290.792 311.685 290.36C310.917 289.928 310.029 289.688 309.045 289.688C307.797 289.688 306.741 290.024 305.901 290.696C305.061 291.368 304.653 292.256 304.653 293.36C304.653 294.176 304.869 294.824 305.301 295.352C305.733 295.88 306.285 296.24 306.933 296.456C307.557 296.696 308.205 296.888 308.829 297.056C309.453 297.224 310.005 297.416 310.437 297.656C310.869 297.896 311.109 298.208 311.109 298.592C311.109 299.504 310.413 299.936 309.069 299.936C307.701 299.936 306.813 299.36 306.405 298.208L304.173 299.504C304.557 300.392 305.157 301.088 306.021 301.568C306.861 302.072 307.869 302.312 309.069 302.312C310.413 302.312 311.517 302 312.405 301.328C313.293 300.68 313.749 299.768 313.749 298.616C313.749 297.8 313.509 297.128 313.077 296.6C312.645 296.072 312.093 295.688 311.469 295.448C310.821 295.232 310.173 295.04 309.549 294.872C308.925 294.704 308.373 294.512 307.941 294.272C307.509 294.032 307.293 293.72 307.293 293.312ZM317.183 288.2C317.615 288.2 317.999 288.056 318.335 287.72C318.671 287.384 318.839 287 318.839 286.544C318.839 286.112 318.671 285.728 318.359 285.392C318.023 285.056 317.639 284.888 317.183 284.888C316.703 284.888 316.319 285.056 316.007 285.392C315.671 285.728 315.527 286.112 315.527 286.544C315.527 287 315.671 287.384 316.007 287.72C316.343 288.056 316.727 288.2 317.183 288.2ZM315.887 302H318.479V290H315.887V302ZM331.041 290V291.776C330.057 290.384 328.665 289.688 326.865 289.688C325.161 289.688 323.721 290.312 322.569 291.512C321.393 292.712 320.817 294.176 320.817 295.88C320.817 297.608 321.393 299.072 322.569 300.272C323.721 301.472 325.161 302.072 326.865 302.072C328.665 302.072 330.057 301.376 331.041 299.984V301.448C331.041 302.504 330.705 303.32 330.081 303.896C329.457 304.472 328.569 304.76 327.465 304.76C325.737 304.76 324.585 304.16 323.961 302.912L321.729 304.208C322.737 306.152 324.633 307.112 327.417 307.112C329.121 307.112 330.585 306.632 331.785 305.648C332.985 304.688 333.585 303.272 333.585 301.448V290H331.041ZM327.225 299.648C326.121 299.648 325.209 299.288 324.489 298.568C323.769 297.848 323.409 296.96 323.409 295.88C323.409 294.824 323.769 293.912 324.489 293.192C325.209 292.472 326.121 292.112 327.225 292.112C328.305 292.112 329.217 292.472 329.937 293.192C330.657 293.912 331.041 294.824 331.041 295.88C331.041 296.96 330.657 297.848 329.937 298.568C329.217 299.288 328.305 299.648 327.225 299.648ZM342.918 289.688C341.214 289.688 339.966 290.312 339.198 291.536V290H336.606V302H339.198V295.568C339.198 294.416 339.462 293.552 340.038 292.976C340.59 292.4 341.334 292.112 342.246 292.112C343.062 292.112 343.734 292.352 344.214 292.832C344.694 293.312 344.934 294.008 344.934 294.896V302H347.526V294.632C347.526 293.096 347.094 291.896 346.254 291.008C345.39 290.144 344.286 289.688 342.918 289.688Z" fill="#959595"/>
<path d="M520.866 285.2H508.626V287.84H513.378V302H516.138V287.84H520.866V285.2ZM529.139 290L526.067 298.712L522.491 290H519.659L524.747 301.784L524.627 302.024C524.291 302.864 523.883 303.488 523.403 303.872C522.899 304.256 522.251 304.424 521.435 304.376V306.8C524.171 306.968 526.139 305.504 527.291 302.384L531.899 290H529.139ZM540.312 289.688C538.488 289.688 537.072 290.384 536.112 291.728V290H533.52V306.8H536.112V300.296C537.072 301.64 538.488 302.312 540.312 302.312C541.944 302.312 543.36 301.712 544.536 300.488C545.688 299.288 546.288 297.776 546.288 296C546.288 294.248 545.688 292.76 544.536 291.536C543.36 290.312 541.944 289.688 540.312 289.688ZM539.904 299.84C538.8 299.84 537.912 299.48 537.192 298.76C536.472 298.04 536.112 297.104 536.112 296C536.112 294.896 536.472 293.984 537.192 293.264C537.912 292.544 538.8 292.16 539.904 292.16C540.984 292.16 541.896 292.544 542.616 293.264C543.336 293.984 543.696 294.896 543.696 296C543.696 297.104 543.336 298.04 542.616 298.76C541.896 299.48 540.984 299.84 539.904 299.84ZM550.677 297.104H560.229C560.277 296.672 560.325 296.312 560.325 296.024C560.325 294.272 559.749 292.784 558.621 291.536C557.493 290.312 556.053 289.688 554.301 289.688C552.429 289.688 550.917 290.312 549.741 291.512C548.541 292.712 547.965 294.224 547.965 296C547.965 297.824 548.565 299.336 549.765 300.536C550.965 301.736 552.525 302.312 554.493 302.312C556.797 302.312 558.549 301.448 559.749 299.696L557.613 298.448C556.917 299.456 555.885 299.936 554.517 299.936C553.509 299.936 552.669 299.696 551.997 299.216C551.301 298.736 550.869 298.016 550.677 297.104ZM550.653 294.992C550.821 294.08 551.229 293.36 551.877 292.832C552.501 292.304 553.317 292.04 554.277 292.04C555.117 292.04 555.861 292.304 556.485 292.784C557.109 293.288 557.517 294.032 557.709 294.992H550.653ZM567.897 302.312C569.673 302.312 571.089 301.88 572.193 300.992C573.297 300.104 573.849 298.904 573.849 297.368C573.849 296.84 573.777 296.336 573.657 295.904C573.513 295.472 573.297 295.088 572.985 294.752C572.673 294.416 572.385 294.152 572.121 293.912C571.833 293.696 571.425 293.48 570.897 293.24C570.369 293.024 569.937 292.856 569.649 292.76C569.361 292.664 568.881 292.496 568.257 292.28C566.961 291.896 566.073 291.512 565.593 291.152C565.113 290.792 564.873 290.288 564.873 289.664C564.873 289.04 565.113 288.536 565.593 288.152C566.073 287.768 566.697 287.576 567.513 287.576C569.145 287.576 570.321 288.368 571.041 289.928L573.369 288.584C572.817 287.432 572.049 286.544 571.041 285.872C570.033 285.224 568.857 284.888 567.513 284.888C566.025 284.888 564.753 285.344 563.697 286.208C562.641 287.072 562.113 288.248 562.113 289.736C562.113 290.504 562.233 291.152 562.521 291.704C562.785 292.28 563.193 292.736 563.745 293.12C564.297 293.504 564.825 293.792 565.329 293.984C565.809 294.2 566.457 294.416 567.273 294.656C568.689 295.088 569.673 295.496 570.249 295.856C570.801 296.216 571.089 296.744 571.089 297.416C571.089 298.088 570.825 298.616 570.297 299.024C569.769 299.432 569.001 299.624 567.969 299.624C565.857 299.624 564.465 298.688 563.793 296.792L561.417 298.184C561.849 299.48 562.641 300.488 563.769 301.208C564.897 301.952 566.265 302.312 567.897 302.312ZM582.051 302.312C583.203 302.312 584.283 302.048 585.243 301.472C586.203 300.92 586.923 300.152 587.451 299.192L585.219 297.92C584.931 298.496 584.499 298.928 583.923 299.264C583.347 299.6 582.723 299.768 582.027 299.768C580.971 299.768 580.083 299.408 579.363 298.688C578.643 297.968 578.307 297.08 578.307 296C578.307 294.944 578.643 294.032 579.363 293.312C580.083 292.592 580.971 292.232 582.027 292.232C582.747 292.232 583.371 292.4 583.923 292.736C584.475 293.072 584.883 293.504 585.171 294.08L587.403 292.784C586.923 291.848 586.203 291.104 585.243 290.528C584.283 289.976 583.203 289.688 582.051 289.688C580.227 289.688 578.715 290.312 577.515 291.512C576.315 292.712 575.715 294.224 575.715 296C575.715 297.776 576.315 299.288 577.515 300.488C578.715 301.712 580.227 302.312 582.051 302.312ZM591.987 292.016V290H589.395V302H591.987V295.952C591.987 294.728 592.347 293.84 593.091 293.312C593.811 292.784 594.675 292.544 595.683 292.592V289.784C593.859 289.784 592.635 290.528 591.987 292.016ZM598.894 288.2C599.326 288.2 599.71 288.056 600.046 287.72C600.382 287.384 600.55 287 600.55 286.544C600.55 286.112 600.382 285.728 600.07 285.392C599.734 285.056 599.35 284.888 598.894 284.888C598.414 284.888 598.03 285.056 597.718 285.392C597.382 285.728 597.238 286.112 597.238 286.544C597.238 287 597.382 287.384 597.718 287.72C598.054 288.056 598.438 288.2 598.894 288.2ZM597.598 302H600.19V290H597.598V302ZM609.992 289.688C608.168 289.688 606.752 290.384 605.792 291.728V290H603.2V306.8H605.792V300.296C606.752 301.64 608.168 302.312 609.992 302.312C611.624 302.312 613.04 301.712 614.216 300.488C615.368 299.288 615.968 297.776 615.968 296C615.968 294.248 615.368 292.76 614.216 291.536C613.04 290.312 611.624 289.688 609.992 289.688ZM609.584 299.84C608.48 299.84 607.592 299.48 606.872 298.76C606.152 298.04 605.792 297.104 605.792 296C605.792 294.896 606.152 293.984 606.872 293.264C607.592 292.544 608.48 292.16 609.584 292.16C610.664 292.16 611.576 292.544 612.296 293.264C613.016 293.984 613.376 294.896 613.376 296C613.376 297.104 613.016 298.04 612.296 298.76C611.576 299.48 610.664 299.84 609.584 299.84ZM624.778 292.496V290H621.802V286.64L619.21 287.408V290H617.002V292.496H619.21V298.256C619.21 299.84 619.642 300.92 620.506 301.496C621.37 302.072 622.786 302.24 624.778 302V299.672C624.106 299.72 623.554 299.72 623.122 299.696C622.69 299.672 622.354 299.552 622.138 299.336C621.898 299.12 621.802 298.76 621.802 298.256V292.496H624.778Z" fill="#959595"/>
<path d="M667.838 285.2V296.6L659.918 285.2H657.758V302H660.518V290.6L668.438 302H670.598V285.2H667.838ZM679.449 302.312C681.225 302.312 682.713 301.712 683.937 300.488C685.161 299.288 685.785 297.776 685.785 296C685.785 294.224 685.161 292.736 683.937 291.512C682.713 290.312 681.225 289.688 679.449 289.688C677.673 289.688 676.185 290.312 674.961 291.512C673.713 292.736 673.113 294.224 673.113 296C673.113 297.776 673.713 299.288 674.961 300.488C676.185 301.712 677.673 302.312 679.449 302.312ZM679.449 299.792C678.393 299.792 677.505 299.432 676.785 298.712C676.065 297.992 675.705 297.104 675.705 296C675.705 294.92 676.065 294.008 676.785 293.288C677.505 292.568 678.393 292.208 679.449 292.208C680.505 292.208 681.393 292.568 682.113 293.288C682.833 294.008 683.193 294.92 683.193 296C683.193 297.104 682.833 297.992 682.113 298.712C681.393 299.432 680.505 299.792 679.449 299.792ZM697.633 285.2V291.704C696.649 290.36 695.257 289.688 693.433 289.688C691.777 289.688 690.361 290.312 689.209 291.512C688.033 292.736 687.457 294.224 687.457 296C687.457 297.776 688.033 299.264 689.209 300.488C690.361 301.712 691.777 302.312 693.433 302.312C695.257 302.312 696.649 301.64 697.633 300.272V302H700.225V285.2H697.633ZM693.841 299.84C692.737 299.84 691.849 299.48 691.129 298.76C690.409 298.04 690.049 297.104 690.049 296C690.049 294.896 690.409 293.984 691.129 293.264C691.849 292.544 692.737 292.16 693.841 292.16C694.921 292.16 695.833 292.544 696.553 293.264C697.273 293.984 697.633 294.896 697.633 296C697.633 297.104 697.273 298.04 696.553 298.76C695.833 299.48 694.921 299.84 693.841 299.84ZM705.286 297.104H714.838C714.886 296.672 714.934 296.312 714.934 296.024C714.934 294.272 714.358 292.784 713.23 291.536C712.102 290.312 710.662 289.688 708.91 289.688C707.038 289.688 705.526 290.312 704.35 291.512C703.15 292.712 702.574 294.224 702.574 296C702.574 297.824 703.174 299.336 704.374 300.536C705.574 301.736 707.134 302.312 709.102 302.312C711.406 302.312 713.158 301.448 714.358 299.696L712.222 298.448C711.526 299.456 710.494 299.936 709.126 299.936C708.118 299.936 707.278 299.696 706.606 299.216C705.91 298.736 705.478 298.016 705.286 297.104ZM705.262 294.992C705.43 294.08 705.838 293.36 706.486 292.832C707.11 292.304 707.926 292.04 708.886 292.04C709.726 292.04 710.47 292.304 711.094 292.784C711.718 293.288 712.126 294.032 712.318 294.992H705.262ZM717.814 302.288C718.294 302.288 718.726 302.12 719.086 301.76C719.422 301.424 719.614 300.992 719.614 300.488C719.614 300.008 719.422 299.576 719.086 299.216C718.726 298.88 718.294 298.688 717.814 298.688C717.286 298.688 716.854 298.88 716.518 299.216C716.182 299.576 716.014 300.008 716.014 300.488C716.014 300.992 716.182 301.424 716.542 301.76C716.878 302.12 717.31 302.288 717.814 302.288ZM724.123 288.2C724.555 288.2 724.939 288.056 725.275 287.72C725.611 287.384 725.779 287 725.779 286.544C725.779 286.112 725.611 285.728 725.275 285.392C724.939 285.056 724.555 284.888 724.123 284.888C723.667 284.888 723.283 285.056 722.947 285.392C722.611 285.728 722.467 286.112 722.467 286.544C722.467 287 722.611 287.384 722.947 287.72C723.283 288.056 723.667 288.2 724.123 288.2ZM722.827 302.48C722.827 303.32 722.635 303.896 722.251 304.232C721.867 304.568 721.291 304.712 720.499 304.616V307.112C723.763 307.352 725.419 305.816 725.419 302.48V290H722.827V302.48ZM730.699 293.312C730.699 292.904 730.867 292.592 731.203 292.376C731.539 292.16 731.947 292.04 732.451 292.04C733.531 292.04 734.275 292.496 734.707 293.408L736.891 292.184C736.459 291.416 735.859 290.792 735.091 290.36C734.323 289.928 733.435 289.688 732.451 289.688C731.203 289.688 730.147 290.024 729.307 290.696C728.467 291.368 728.059 292.256 728.059 293.36C728.059 294.176 728.275 294.824 728.707 295.352C729.139 295.88 729.691 296.24 730.339 296.456C730.963 296.696 731.611 296.888 732.235 297.056C732.859 297.224 733.411 297.416 733.843 297.656C734.275 297.896 734.515 298.208 734.515 298.592C734.515 299.504 733.819 299.936 732.475 299.936C731.107 299.936 730.219 299.36 729.811 298.208L727.579 299.504C727.963 300.392 728.563 301.088 729.427 301.568C730.267 302.072 731.275 302.312 732.475 302.312C733.819 302.312 734.923 302 735.811 301.328C736.699 300.68 737.155 299.768 737.155 298.616C737.155 297.8 736.915 297.128 736.483 296.6C736.051 296.072 735.499 295.688 734.875 295.448C734.227 295.232 733.579 295.04 732.955 294.872C732.331 294.704 731.779 294.512 731.347 294.272C730.915 294.032 730.699 293.72 730.699 293.312Z" fill="#959595"/>
<path d="M779.92 285.2V296.6L772 285.2H769.84V302H772.6V290.6L780.52 302H782.68V285.2H779.92ZM787.907 297.104H797.459C797.507 296.672 797.555 296.312 797.555 296.024C797.555 294.272 796.979 292.784 795.851 291.536C794.723 290.312 793.283 289.688 791.531 289.688C789.659 289.688 788.147 290.312 786.971 291.512C785.771 292.712 785.195 294.224 785.195 296C785.195 297.824 785.795 299.336 786.995 300.536C788.195 301.736 789.755 302.312 791.723 302.312C794.027 302.312 795.779 301.448 796.979 299.696L794.843 298.448C794.147 299.456 793.115 299.936 791.747 299.936C790.739 299.936 789.899 299.696 789.227 299.216C788.531 298.736 788.099 298.016 787.907 297.104ZM787.883 294.992C788.051 294.08 788.459 293.36 789.107 292.832C789.731 292.304 790.547 292.04 791.507 292.04C792.347 292.04 793.091 292.304 793.715 292.784C794.339 293.288 794.747 294.032 794.939 294.992H787.883ZM809.955 302L805.467 295.856L809.739 290H806.715L803.955 293.792L801.195 290H798.195L802.467 295.832L797.955 302H800.979L803.979 297.896L806.955 302H809.955ZM818.392 292.496V290H815.416V286.64L812.824 287.408V290H810.616V292.496H812.824V298.256C812.824 299.84 813.256 300.92 814.12 301.496C814.984 302.072 816.4 302.24 818.392 302V299.672C817.72 299.72 817.168 299.72 816.736 299.696C816.304 299.672 815.968 299.552 815.752 299.336C815.512 299.12 815.416 298.76 815.416 298.256V292.496H818.392ZM831.588 302.312C833.268 302.312 834.636 301.856 835.74 300.92C836.82 299.984 837.372 298.64 837.372 296.912V285.2H834.612V296.912C834.612 297.776 834.348 298.448 833.82 298.928C833.292 299.408 832.572 299.624 831.612 299.624C830.124 299.624 829.092 299.048 828.564 297.848L826.188 299.24C827.172 301.304 828.972 302.312 831.588 302.312ZM846.167 302.312C847.943 302.312 849.359 301.88 850.463 300.992C851.567 300.104 852.119 298.904 852.119 297.368C852.119 296.84 852.047 296.336 851.927 295.904C851.783 295.472 851.567 295.088 851.255 294.752C850.943 294.416 850.655 294.152 850.391 293.912C850.103 293.696 849.695 293.48 849.167 293.24C848.639 293.024 848.207 292.856 847.919 292.76C847.631 292.664 847.151 292.496 846.527 292.28C845.231 291.896 844.343 291.512 843.863 291.152C843.383 290.792 843.143 290.288 843.143 289.664C843.143 289.04 843.383 288.536 843.863 288.152C844.343 287.768 844.967 287.576 845.783 287.576C847.415 287.576 848.591 288.368 849.311 289.928L851.639 288.584C851.087 287.432 850.319 286.544 849.311 285.872C848.303 285.224 847.127 284.888 845.783 284.888C844.295 284.888 843.023 285.344 841.967 286.208C840.911 287.072 840.383 288.248 840.383 289.736C840.383 290.504 840.503 291.152 840.791 291.704C841.055 292.28 841.463 292.736 842.015 293.12C842.567 293.504 843.095 293.792 843.599 293.984C844.079 294.2 844.727 294.416 845.543 294.656C846.959 295.088 847.943 295.496 848.519 295.856C849.071 296.216 849.359 296.744 849.359 297.416C849.359 298.088 849.095 298.616 848.567 299.024C848.039 299.432 847.271 299.624 846.239 299.624C844.127 299.624 842.735 298.688 842.063 296.792L839.687 298.184C840.119 299.48 840.911 300.488 842.039 301.208C843.167 301.952 844.535 302.312 846.167 302.312Z" fill="#959595"/>
</svg>
